<?xml version="1.0" encoding="UTF-8"?>
<svg id="Layer_1" data-name="Layer 1" xmlns="http://www.w3.org/2000/svg" height="96" width="96">
  <defs>
    <style>
      .cls-1 {
        fill: #df523c;
      }

      .cls-1, .cls-2, .cls-3 {
        fill-rule: evenodd;
      }

      .cls-2 {
        isolation: isolate;
        opacity: .8;
      }

      .cls-2, .cls-3 {
        fill: #f58553;
      }

      .cls-4 {
        fill: #f26d53;
      }
    </style>
  </defs>
  <path class="cls-3" d="M39.36,25.3c.01,.07,.03,.14,.12,.06,.05-.04,.09-.08,.1-.16,.02-.12,.04-.24,.17-.34-.29,.02-.42,.18-.38,.44Z"/>
  <path class="cls-3" d="M38.55,22.28c.08-.02,.17-.03,.16-.14,0-.06-.02-.13-.1-.13-.09,0-.14,.06-.15,.14,0,.05,.04,.12,.1,.13Z"/>
  <path class="cls-3" d="M52.23,24.67c-.02,.06,.1,.17,.17,.16,.09-.01,.17-.05,.17-.17,0-.1-.08-.19-.17-.19-.12,0-.14,.11-.17,.2Z"/>
  <path class="cls-3" d="M43.89,19.19c.07,0,.12-.03,.12-.1,0-.06-.04-.1-.1-.1-.06,0-.1,.02-.1,.09,0,.07,.02,.11,.09,.1Z"/>
  <path class="cls-3" d="M39.26,23.12c.05,0,.1,0,.09-.07,0-.05-.04-.09-.1-.09-.05,0-.09,.04-.08,.09,0,.04,.03,.09,.08,.07Z"/>
  <path class="cls-3" d="M33.11,20.88s.07-.02,.08-.07c-.03-.01-.02-.07-.07-.07-.06,0-.07,.04-.08,.07-.01,.05,.03,.07,.07,.07Z"/>
  <path class="cls-1" d="M37.96,19.94c-.04-.13-.07-.27-.18-.4,0,.09,0,.15-.03,.21-.02,.05-.01,.12-.09,.13-.08,0-.12-.03-.16-.09-.13-.21-.09-.44-.06-.66,.03-.16,.07-.32,.11-.5-.31,.21-.47,.65-.39,1.02,.08,.36,.21,.7,.42,1,.24,.36,.25,.73,0,1.08,.07,0,.11-.03,.15-.06,.3-.24,.35-.59,.34-.94,0-.27-.05-.53-.13-.79Z"/>
  <path class="cls-1" d="M48.7,22.5c-.12,.13-.13,.3-.14,.46-.01,.18,.09,.34,.21,.49,.06-.16,.05-.31,0-.46-.06-.15-.09-.31-.07-.48Z"/>
  <path class="cls-1" d="M57.2,20.29s-.04,.01-.04,.03c0,.07-.04,.15,0,.22,.07,.11,.13,.23,.11,.39,.12-.11,.15-.23,.14-.35-.01-.13-.12-.22-.22-.28Z"/>
  <path class="cls-1" d="M62.2,15.98c-.1,0-.16,.07-.16,.2-.01,.11,.08,.14,.14,.16,.08,.03,.2-.09,.2-.18,0-.09-.08-.18-.18-.18Z"/>
  <path class="cls-1" d="M49.22,21.59c-.2,.17-.2,.24-.03,.4,.11-.12,0-.25,.03-.4Z"/>
  <path class="cls-1" d="M49.4,31.9c-.07,.09-2.53-.07-2.64,0,.21,0,.41,0,.62,0,.05,0,.1,0,.15,0,2.56,0,5.11,0,7.67,0,.93,0,1.86,0,2.8,0,.57,0,1.81,0,1.86,0m-.05,0c3.04-.01,4.19,0,4.19,0v-7.69c-.28-.91-2.73-2.65-2.84-3.53-.03-.26,0-.54,.06-.8,.14-.64,.39-1.21,.86-1.66,.21-.21,.45-.37,.81-.3-.49-.31-.97-.38-1.49-.23-.46,.14-.84,.42-1.18,.75-.37,.35-.68,.74-.88,1.23-.09,.22-.17,.46-.19,.69-.03,.31-.03,.63,.03,.94,.06,.31,.15,.61,.3,.88,.18,.34,.37,.66,.49,1.03,.12,.37,.18,.75,.12,1.14-.06,.46-.25,.85-.58,1.18-.27,.27-.57,.25-.79-.07-.1-.14-.16-.29-.2-.46-.09-.37-.04-.7,.19-1,.27-.35,.41-.72,.31-1.16-.09-.43-.51-.83-.87-.84,.15,.12,.36,.39,.45,.57,.15,.3,.13,.64-.13,.88-.19,.18-.36,.37-.51,.6-.11,.17-.21,.34-.25,.54-.02,.1,0,.21-.01,.31,0,.04,.01,.09-.06,.06-.19-.08-.34-.22-.35-.5,0-.15,.08-.28,.08-.42,.01-.36-.28-.73-.66-.8-.35-.06-.62,.1-.81,.5,.08-.03,.16-.05,.24-.08,.08-.03,.17,0,.25,0,.26,0,.51,.29,.45,.56-.04,.24-.16,.43-.24,.65-.15,.38-.36,.74-.5,1.13-.14,.41-.24,.82-.16,1.26,.01,.08,.07,.14,.05,.25-.26-.29-.55-.54-.87-.73-.29-.17-.58-.31-.91-.38-.07-.02-.05-.02-.12-.02-.12,0-.08,.02-.23,0-.17,0-.18,0-.28-.02-.1-.01-.43-.12-.5-.14-.53-.08-.63-.31-.93-.75-.4-.56-.56-1.2-.49-1.89,.06-.59,.3-1.08,.68-1.52,.38-.44,.86-.75,1.38-1-.01,0-.02-.01-.02-.01,0,0-.02,0-.03,0-.67,.12-1.55,.51-2.03,1.1,0,0-.01,.01-.02,.02-.14,.15-.26,.32-.35,.5-.19,.37-.3,.77-.36,1.18-.04,.3-.06,.61-.01,.9,.06,.38,.18,.75,.37,1.1,.18,.32,.4,.61,.59,.93,.07,.12,.07,.21-.04,.29-.07,.05-.14,.09-.21,.12-.24,.1-.48,.1-.73,.05-.51-.1-.9-.36-1.09-.88-.17-.45-.12-.91-.01-1.36,.13-.53,.34-1.03,.47-1.56,.12-.48,.21-.96,.25-1.45,.02-.37,.02-.74-.03-1.11-.04-.14-.03-.3-.13-.43h0c0-.15-.08-.28-.14-.41-.11-.29-.3-.51-.55-.68,.1,.15,.21,.3,.3,.46,.01,.02,.03,.08,.08,.05,0,.15,.11,.26,.13,.4,0,.02,0,.03,.01,.03h0c.04,.26,.12,.51,.13,.77,0,.25-.01,.49-.04,.74-.04,.32-.1,.64-.2,.94-.09,.28-.2,.55-.3,.82-.12,.31-.25,.62-.35,.94-.17,.51-.37,1.01-.48,1.54-.13,.62-.08,1.21,.24,1.76,.03,.05,.05,.11,.05,.17,.02,.43-.23,.76-.69,.79-.56,.04-1.01-.25-1.15-.77-.07-.27-.06-.55,0-.82,.11-.53,.36-.99,.67-1.43,.17-.24,.29-.51,.31-.8,.04-.61-.18-1.12-.65-1.49-.18-.14-.38-.23-.62-.19-.41,.07-.54,.51-.56,.91,.07-.09,.13-.19,.2-.28,.12-.16,.3-.19,.47-.15,.45,.11,.66,.6,.43,1.01-.09,.16-.2,.3-.35,.42-.18,.15-.32,.33-.5,.47-.2,.16-.38,.35-.52,.56-.18,.27-.4,.49-.68,.63-.25,.12-.59,.15-.77-.08-.16-.2-.15-.42-.08-.64,.22-.66,.49-1.3,.64-1.99,.09-.38,.13-.77,.13-1.16-.01-.74-.26-1.4-.68-1.99-.13-.18-.27-.34-.42-.53-.02,.11,0,.19,.02,.26,.09,.45,.13,.9,.15,1.36,.01,.27-.01,.55-.04,.82-.04,.39-.11,.77-.25,1.14-.09,.26-.23,.49-.4,.7-.15,.18-.34,.33-.55,.43-.28,.13-.61-.07-.66-.41-.09-.59-.01-1.15,.33-1.65-.03-.01-.06,0-.09,.03-.26,.21-.49,.43-.67,.72-.32,.5-.46,1.05-.54,1.62-.06,.44-.13,.87-.26,1.3-.16,.5-.72,.85-1.23,.76-.32-.05-.54-.26-.71-.53-.49-.78-.42-1.58-.04-2.38,.14-.3,.34-.57,.56-.83-.43-.06-.77,.1-1.06,.39-.35,.35-.5,.81-.65,1.27-.03,.11-.06,.08-.11,.04-.46-.38-.75-.86-.87-1.46-.02-.11-.03-.22-.05-.33,0-.41,.06-.81,.19-1.21-.03,.07-.1,.1-.14,.16-.47,.71-.55,1.51-.5,2.33,.01,.19-.02,.36-.08,.52-.1,.28-.28,.34-.5,.14-.15-.13-.3-.28-.43-.43-.4-.45-.62-.99-.64-1.61-.03-.7,.15-1.36,.41-1.99,.29-.73,.39-1.47,.21-2.24-.1-.43-.29-.82-.54-1.16-.13-.18-.3-.34-.5-.47-.56-.37-1.13-.46-1.73-.12,.05,.04,.1,.06,.15,.07,.41,.11,.78,.31,1.07,.63,.35,.38,.44,.85,.34,1.36-.09,.48-.26,.93-.44,1.38-.26,.63-.58,1.24-.76,1.9-.09,.3-.14,.61-.16,.92,0,.03,0,.06-.02,.07-.03,.02-.06-.01-.07-.04-.09-.12-.16-.24-.21-.39-.18-.51-.12-1.01,.02-1.51,.08-.27,.18-.52,.29-.82-.17,.12-.25,.26-.33,.4-.38,.62-.45,1.3-.37,2,.06,.49,.31,.95,.3,1.52,0,.23-.57,.5-.78,.71l.06,6.04c.16,.29,13.44,.02,13.44,.02,.07,0,.14,0,.22,0m13.04-8.41h0s0,.01,0,.02c0,0,0-.01,0-.02Zm-8.55-3.17s.05,.08,.09,.11c-.03-.03-.05-.08-.09-.11Zm-17.96,7.41h0s0,0,0,0Z"/>
  <path class="cls-4" d="M32.52,26.94c-.9,2.45,.21,3.74,.21,3.74,5.05,.46,9.57,.66,13.46,.71,.06,0,.11,0,.17,0,4.79,.06,8.61-.1,11.3-.28,.03,0,.07,0,.1,0,2.87-.2,4.42-.43,4.42-.43,.49-.59,1.05-2.38,.96-3.68,.04,.12,.07-.59,.08-.45,0,0,.56-1.54-1.73-3.06-.4-.34-.75-.82-.98-1.3-.16-.34-.44-.84-.44-1.22,0-.56,.18-.87,.5-1.31,.15-.2,.29-.47,.49-.62,.03-.02,.9-1.09,.94-1.13-.21,.03-1.07,.74-1.23,.82-.39,.2-.96,.8-1.19,1.17-.21,.34-.15,1.04-.17,1.43-.03,.71,.63,1.46,.96,2.07,.17,.31,.34,1.22,.4,1.58,.11,.68-.34,.7-.74,1.27-.28,.4-.81,.05-1.26-.06-.3-.07-.49-.28-.58-.55-.18-.51-.04-1.09,.28-1.54,.1-.14,.49-.93,.44-1.29-.15,.04-.22,.87-.8,1.3-.15,.32-.15,.6-.42,1.53-.34-.11-.44-.52-.39-.93,.02-.16-.09-.64-.05-.8,.05-.19-.37-.46-.54-.56-.11-.06-.24,.07-.37,.08,.1,.05,.4,.1,.48,.19,.06,.06,.21,.46,.21,.54,.01,.45-.28,1.56-.5,1.96-.29,.5-.37,.64-.35,1.22,.01,.22-.13,.6,.03,.77-.2,.31-.13,.19-.28,.54-.02,.06-.23-.11-.32-.17-.38-.27-.75-.55-1.07-.89-.14-.15-.26-.32-.4-.47-.26-.28-.59-.38-.96-.43-.54-.08-.56-.39-1.01-.76-.29-.24-.35-.7-.5-1.04-.18-.42-.24-.69-.22-1.15,.01-.3,.1-.53,.21-.81,0-.02,.75-1.2,.77-1.23-.07,.02-.96,.99-.98,1.03-.15,.36-.32,.85-.38,1.23-.04,.24,.12,.64,.19,.88,.12,.43,.14,.86,.38,1.23,.11,.17,.46,.64,.57,.82,.17,.28-.64,.39-.93,.55-.28,.15-.38,.08-.69,.05-.02,0-.25-.02-.27-.01l-.13-.06c-.15-.06-.23-.21-.43-.24-.24-.27-.25-.44-.26-1.11,0-.41,.09-.92,.21-1.3,.12-.4,.26-.79,.38-1.19,.02-.08,.16-.65,.15-.74-.06,.16-.38,.83-.44,.99-.17,.44-.33,.92-.48,1.36-.14,.4-.19,.73-.32,1.16,0,.42-.05,.83,.2,1.17,.11,.15,.14,.39,.2,.56,.12,.33-.11,.47-.3,.74-.32,.47-.78,.58-1.32,.51-.24-.03-.46-.09-.68-.17-.44-.17-.65-.53-.77-.95-.18-.65-.05-1.26,.32-1.82,.24-.36,.84-.51,1.1-.84,.32-.41,.5-1.31,.13-1.69-.16-.17-.19-.29-.44-.33-.1-.01-.4-.05-.49,.01,.22,0,.56,.14,.81,.42,.23,.4-.11,.85-.4,1.32-.16,.25-.51,.47-.72,.68-.3,.31-.57,.65-.86,.97-.23,.25-.49,.46-.84,.51-.44,.07-.95-.14-.99-.71-.03-.41,.08-.79,.23-1.16,.13-.3,.28-.6,.42-.9,.19-.42,.45-.81,.39-1.26-.05-.32,.1-.75-.09-1.01-.02-.02-.09-.09-.12-.11-.04,.01,.02,.14,.02,.17-.02,.53-.14,.96-.28,1.5-.09,.4-.47,.8-.66,1.17-.2,.38-.49,.63-.92,.72-.3,.06-.49-.08-.6-.31-.17-.37-.19-.77-.14-1.17,0-.08,.02-.16,.03-.27-.12,.24-.2,.46-.27,.69-.14,.45-.18,.91-.24,1.37-.05,.39-.11,.77-.27,1.13l-.51,.66c-.24,.17-.53,.25-.87,.24-.28-.01-.51-.16-.68-.37-.36-.45-.54-.97-.62-1.53-.06-.49,.07-.94,.24-1.39,.06-.15,.15-.29,.23-.43-.2,.14-.37,.31-.46,.55-.1,.26-.19,.53-.29,.78-.05,.13-.11,.29-.27,.31-.16,.02-.25-.11-.33-.22-.15-.19-.3-.38-.42-.59-.17-.3-.24-.63-.27-.97-.01-.13-.02-.25-.03-.38-.07,.48-.1,.96-.02,1.44,.03,.19,.05,.38,.02,.58-.08,.48-.46,.64-.88,.51-.56-.17-.91-.56-1.14-1.08-.26-.59-.32-1.22-.28-1.85,.03-.47,.16-.92,.32-1.36,.14-.4,.31-.79,.45-1.19,.16-.49,.08-.96-.1-1.43-.09-.23-.21-.43-.4-.59-.04-.04-.08-.07-.16-.08,.06,.16,.12,.31,.17,.47,.17,.62,.08,1.21-.19,1.77-.14,.29-.3,.56-.43,.85-.31,.64-.49,1.32-.6,2.02-.05,.31-.08,.62-.07,.97-.29-.33-.54-.65-.76-.99,.04,.2,.08,.39,.11,.59,.07,.48,.15,.95,.04,1.43"/>
  <path class="cls-2" d="M57.35,31.2c.16,0,.31,0,.47,0-.87-.47-.58-1.21-.52-1.89-.12,.01-.17,.1-.24,.15-.33,.27-.48,.66-.72,.99-.32,.43-.57,.43-.87,0-.09-.13-.14-.12-.27-.05-.35,.19-.65,.15-.95-.11-.21-.18-.34-.41-.52-.61-.16-.18-.2-.37-.21-.59-.01-.28,.07-.54,.06-.81h0c-.26,.16-.35,.42-.47,.66-.15,.29-.19,.61-.3,.91-.09,.24-.26,.42-.58,.4-.26-.01-.5-.19-.58-.45-.03-.1-.04-.21-.07-.31-.08-.36-.38-.63-.79-.7,.05,.09,.1,.17,.14,.26,.15,.32,0,.68-.35,.83-.32,.14-.68,.02-.85-.31-.21-.4-.29-.8-.07-1.22,.25-.49,.53-.97,.65-1.5,.13-.54,.28-1.08,.1-1.64-.05-.16-.1-.33-.28-.44,.02,.64-.04,1.26-.29,1.86-.05,.13-.13,.28-.31,.28-.18,0-.25-.16-.3-.29-.1-.24-.13-.5-.17-.76-.16,.25-.24,.52-.26,.81-.06,.76,.16,1.51,.12,2.27-.03,.49-.14,.96-.55,1.33-.19,.17-.42,.23-.67,.2-.22-.03-.17-.24-.23-.36-.16-.3-.37-.54-.74-.63,0,.07,.04,.12,.07,.18,.23,.37,.11,.76-.31,1.01-.26,.15-.55,.06-.83-.29-.21-.25-.39-.54-.62-.77-.31-.31-.35-.66-.31-1.06,.03-.31,.07-.61,.11-.93-.1,.04-.12,.1-.14,.15-.18,.34-.21,.71-.35,1.06-.08,.2-.14,.41-.36,.53-.19,.11-.37,0-.59-.05,.07,.15,.07,.27,.07,.39,0,.22-.12,.37-.33,.46-.17,.07-.37,.1-.53-.02-.18-.14-.17-.33-.11-.51,.09-.29,.11-.57,.09-.87-.03-.35-.15-.67-.38-1.01-.07,.75-.44,1.33-.8,1.9-.26,.41-.68,.65-1.19,.75-.75,.15-1.52-.23-1.78-.87-.06-.15-.1-.32-.34-.44,.11,.19,.09,.34,.09,.49,0,.36-.37,.57-.73,.43-.31-.12-.36-.38-.38-.64-.04-.62,.08-1.23,.15-1.85,.06-.52,.05-1.04-.18-1.54-.08-.17-.15-.37-.38-.49,.04,.2,.1,.36,.11,.53,.04,.64-.13,1.26-.32,1.87-.06,.19-.2,.28-.43,.29-.64,.02-1.14-.28-1.54-.66-.41-.39-.67-.89-.78-1.43-.08-.4-.18-.79-.34-1.18-.21-.53-.42-.82-.78-1.03,.43,.66,.62,1.32,.55,2.04,0,.04,.02,.09,.03,.13,.21,.82,.66,1.55,1.14,2.26,.14,.2,.21,.43,.16,.66-.11,.52-.4,.95-.87,1.28,0,0,0,.02-.01,.02,0,0-.01,0-.02,0,.01,0,.02-.01,.03-.02,0-.33,.03-.66-.26-.94-.11,.33-.26,.52-.77,.94,0,0-.69,.21,.45,.58,1.85,.61,13.4,1.13,24.33,.37Z"/>
  <path class="cls-2" d="M63.78,31.86c-9.57,0-14.72-.17-24.28-.17-.18,0-.37,0-.55,0,.59-.3,.99-.68,1.19-1.18,.12,.05,.17,.12,.25,.17,1.19,.89,2.65,.76,3.94,.21,.5-.22,.86-.49,.68-.94,.62,.06,1.03,.24,1.28,.59,.23,.32,.58,.35,.96,.08,.17-.12,.24-.26,.26-.43,.03-.21-.17-.37-.29-.56,.28,.02,.43,.11,.57,.19,.48,.27,.82,.6,1.04,.98,.22,.38,.61,.66,1.26,.73,1.41,.16,3.25-.42,3.55-1.44,.18-.6,.42-1.2,.92-1.74,.23-.25,.47-.52,1.01-.67-.12,.18-.21,.31-.29,.45-.26,.46-.4,.93-.01,1.4,.34,.41,.97,.48,1.53,.17,.52-.29,.6-.62,.23-1.05,.73,.12,1.07,.37,1.27,.73,.14,.26,.36,.31,.75,.18,.39-.13,.6-.36,.73-.61,.22-.42,.32-.85,.31-1.29,0-.24,0-.48-.28-.67-.03-.04-.06-.08-.09-.12,.84,.21,1.03,.7,1.25,1.17,.13,.28,.18,.57,.29,.85,.05,.12,.12,.26,.35,.28,.23,.02,.37-.1,.46-.21,.62-.75,.84-1.51,.12-2.29-.45-.78-.36-1.53,.31-2.26h0c.03,.41-.18,.81-.03,1.23,.12,.35,.31,.67,.63,.97,.25,.24,.45,.51,.54,.8,.03,.13,.07,.27,.1,.4,0,.18,0,.37-.01,.55-.17,.35-.36,.69-.5,1.04-.11,.27,0,.52,.41,.69,.39,.16,.51,1.68,.14,1.77Z"/>
  <path class="cls-3" d="M25.3,56.64c.07-.01,.14-.03,.06-.12-.04-.05-.08-.09-.16-.1-.12-.02-.24-.04-.34-.17,.02,.29,.18,.42,.44,.38Z"/>
  <path class="cls-3" d="M22.28,57.45c-.02-.08-.03-.17-.14-.16-.06,0-.13,.02-.13,.1,0,.09,.06,.14,.14,.15,.05,0,.12-.04,.13-.1Z"/>
  <path class="cls-3" d="M24.67,43.77c.06,.02,.17-.1,.16-.17-.01-.09-.05-.17-.17-.17-.1,0-.19,.08-.19,.17,0,.12,.11,.14,.2,.17Z"/>
  <path class="cls-3" d="M19.19,52.11c0-.07-.03-.12-.1-.12-.06,0-.1,.04-.1,.1,0,.06,.02,.1,.09,.1,.07,0,.11-.02,.1-.09Z"/>
  <path class="cls-3" d="M23.12,56.74c0-.05,0-.1-.07-.09-.05,0-.09,.04-.09,.1,0,.05,.04,.09,.09,.08,.04,0,.09-.03,.07-.08Z"/>
  <path class="cls-3" d="M20.88,62.89s-.02-.07-.07-.08c-.01,.03-.07,.02-.07,.07,0,.06,.04,.07,.07,.08,.05,.01,.07-.03,.07-.07Z"/>
  <path class="cls-1" d="M19.94,58.04c-.13,.04-.27,.07-.4,.18,.09,0,.15,0,.21,.03,.05,.02,.12,.01,.13,.09,0,.08-.03,.12-.09,.16-.21,.13-.44,.09-.66,.06-.16-.03-.32-.07-.5-.11,.21,.31,.65,.47,1.02,.39,.36-.08,.7-.21,1-.42,.36-.24,.73-.25,1.08,0,0-.07-.03-.11-.06-.15-.24-.3-.59-.35-.94-.34-.27,0-.53,.05-.79,.13Z"/>
  <path class="cls-1" d="M22.5,47.3c.13,.12,.3,.13,.46,.14,.18,.01,.34-.09,.49-.21-.16-.06-.31-.05-.46,0-.15,.06-.31,.09-.48,.07Z"/>
  <path class="cls-1" d="M20.29,38.8s.01,.04,.03,.04c.07,0,.15,.04,.22,0,.11-.07,.23-.13,.39-.11-.11-.12-.23-.15-.35-.14-.13,.01-.22,.12-.28,.22Z"/>
  <path class="cls-1" d="M15.98,33.8c0,.1,.07,.16,.2,.16,.11,.01,.14-.08,.16-.14,.03-.08-.09-.2-.18-.2-.09,0-.18,.08-.18,.18Z"/>
  <path class="cls-1" d="M21.59,46.78c.17,.2,.24,.2,.4,.03-.12-.11-.25,0-.4-.03Z"/>
  <path class="cls-1" d="M31.9,46.6c.09,.07-.07,2.53,0,2.64,0-.21,0-.41,0-.62,0-.05,0-.1,0-.15,0-2.56,0-5.11,0-7.67,0-.93,0-1.86,0-2.8,0-.57,0-1.81,0-1.86m0,.05c-.01-3.04,0-4.19,0-4.19h-7.69c-.91,.28-2.65,2.73-3.53,2.84-.26,.03-.54,0-.8-.06-.64-.14-1.21-.39-1.66-.86-.21-.21-.37-.45-.3-.81-.31,.49-.38,.97-.23,1.49,.14,.46,.42,.84,.75,1.18,.35,.37,.74,.68,1.23,.88,.22,.09,.46,.17,.69,.19,.31,.03,.63,.03,.94-.03,.31-.06,.61-.15,.88-.3,.34-.18,.66-.37,1.03-.49,.37-.12,.75-.18,1.14-.12,.46,.06,.85,.25,1.18,.58,.27,.27,.25,.57-.07,.79-.14,.1-.29,.16-.46,.2-.37,.09-.7,.04-1-.19-.35-.27-.72-.41-1.16-.31-.43,.09-.83,.51-.84,.87,.12-.15,.39-.36,.57-.45,.3-.15,.64-.13,.88,.13,.18,.19,.37,.36,.6,.51,.17,.11,.34,.21,.54,.25,.1,.02,.21,0,.31,.01,.04,0,.09-.01,.06,.06-.08,.19-.22,.34-.5,.35-.15,0-.28-.08-.42-.08-.36-.01-.73,.28-.8,.66-.06,.35,.1,.62,.5,.81-.03-.08-.05-.16-.08-.24-.03-.08,0-.17,0-.25,0-.26,.29-.51,.56-.45,.24,.04,.43,.16,.65,.24,.38,.15,.74,.36,1.13,.5,.41,.14,.82,.24,1.26,.16,.08-.01,.14-.07,.25-.05-.29,.26-.54,.55-.73,.87-.17,.29-.31,.58-.38,.91-.02,.07-.02,.05-.02,.12,0,.12,.02,.08,0,.23,0,.17,0,.18-.02,.28-.01,.1-.12,.43-.14,.5-.08,.53-.31,.63-.75,.93-.56,.4-1.2,.56-1.89,.49-.59-.06-1.08-.3-1.52-.68-.44-.38-.75-.86-1-1.38,0,.01-.01,.02-.01,.02,0,0,0,.02,0,.03,.12,.67,.51,1.55,1.1,2.03,0,0,.01,.01,.02,.02,.15,.14,.32,.26,.5,.35,.37,.19,.77,.3,1.18,.36,.3,.04,.61,.06,.9,.01,.38-.06,.75-.18,1.1-.37,.32-.18,.61-.4,.93-.59,.12-.07,.21-.07,.29,.04,.05,.07,.09,.14,.12,.21,.1,.24,.1,.48,.05,.73-.1,.51-.36,.9-.88,1.09-.45,.17-.91,.12-1.36,.01-.53-.13-1.03-.34-1.56-.47-.48-.12-.96-.21-1.45-.25-.37-.02-.74-.02-1.11,.03-.14,.04-.3,.03-.43,.13h0c-.15,0-.28,.08-.41,.14-.29,.11-.51,.3-.68,.55,.15-.1,.3-.21,.46-.3,.02-.01,.08-.03,.05-.08,.15,0,.26-.11,.4-.13,.02,0,.03,0,.03-.01h0c.26-.04,.51-.12,.77-.13,.25,0,.49,.01,.74,.04,.32,.04,.64,.1,.94,.2,.28,.09,.55,.2,.82,.3,.31,.12,.62,.25,.94,.35,.51,.17,1.01,.37,1.54,.48,.62,.13,1.21,.08,1.76-.24,.05-.03,.11-.05,.17-.05,.43-.02,.76,.23,.79,.69,.04,.56-.25,1.01-.77,1.15-.27,.07-.55,.06-.82,0-.53-.11-.99-.36-1.43-.67-.24-.17-.51-.29-.8-.31-.61-.04-1.12,.18-1.49,.65-.14,.18-.23,.38-.19,.62,.07,.41,.51,.54,.91,.56-.09-.07-.19-.13-.28-.2-.16-.12-.19-.3-.15-.47,.11-.45,.6-.66,1.01-.43,.16,.09,.3,.2,.42,.35,.15,.18,.33,.32,.47,.5,.16,.2,.35,.38,.56,.52,.27,.18,.49,.4,.63,.68,.12,.25,.15,.59-.08,.77-.2,.16-.42,.15-.64,.08-.66-.22-1.3-.49-1.99-.64-.38-.09-.77-.13-1.16-.13-.74,.01-1.4,.26-1.99,.68-.18,.13-.34,.27-.53,.42,.11,.02,.19,0,.26-.02,.45-.09,.9-.13,1.36-.15,.27-.01,.55,.01,.82,.04,.39,.04,.77,.11,1.14,.25,.26,.09,.49,.23,.7,.4,.18,.15,.33,.34,.43,.55,.13,.28-.07,.61-.41,.66-.59,.09-1.15,.01-1.65-.33-.01,.03,0,.06,.03,.09,.21,.26,.43,.49,.72,.67,.5,.32,1.05,.46,1.62,.54,.44,.06,.87,.13,1.3,.26,.5,.16,.85,.72,.76,1.23-.05,.32-.26,.54-.53,.71-.78,.49-1.58,.42-2.38,.04-.3-.14-.57-.34-.83-.56-.06,.43,.1,.77,.39,1.06,.35,.35,.81,.5,1.27,.65,.11,.03,.08,.06,.04,.11-.38,.46-.86,.75-1.46,.87-.11,.02-.22,.03-.33,.05-.41,0-.81-.06-1.21-.19,.07,.03,.1,.1,.16,.14,.71,.47,1.51,.55,2.33,.5,.19-.01,.36,.02,.52,.08,.28,.1,.34,.28,.14,.5-.13,.15-.28,.3-.43,.43-.45,.4-.99,.62-1.61,.64-.7,.03-1.36-.15-1.99-.41-.73-.29-1.47-.39-2.24-.21-.43,.1-.82,.29-1.16,.54-.18,.13-.34,.3-.47,.5-.37,.56-.46,1.13-.12,1.73,.04-.05,.06-.1,.07-.15,.11-.41,.31-.78,.63-1.07,.38-.35,.85-.44,1.36-.34,.48,.09,.93,.26,1.38,.44,.63,.26,1.24,.58,1.9,.76,.3,.09,.61,.14,.92,.16,.03,0,.06,0,.07,.02,.02,.03-.01,.06-.04,.07-.12,.09-.24,.16-.39,.21-.51,.18-1.01,.12-1.51-.02-.27-.08-.52-.18-.82-.29,.12,.17,.26,.25,.4,.33,.62,.38,1.3,.45,2,.37,.49-.06,.95-.31,1.52-.3,.23,0,.5,.57,.71,.78l6.04-.06c.29-.16,.02-13.44,.02-13.44,0-.07,0-.14,0-.22m-8.41-13.04h0s.01,0,.02,0c0,0-.01,0-.02,0Zm-3.17,8.55s.08-.05,.11-.09c-.03,.03-.08,.05-.11,.09Zm7.41,17.96h0s0,0,0,0Z"/>
  <path class="cls-4" d="M26.94,63.48c2.45,.9,3.74-.21,3.74-.21,.46-5.05,.66-9.57,.71-13.46,0-.06,0-.11,0-.17,.06-4.79-.1-8.61-.28-11.3,0-.03,0-.07,0-.1-.2-2.87-.43-4.42-.43-4.42-.59-.49-2.38-1.05-3.68-.96,.12-.04-.59-.07-.45-.08,0,0-1.54-.56-3.06,1.73-.34,.4-.82,.75-1.3,.98-.34,.16-.84,.44-1.22,.44-.56,0-.87-.18-1.31-.5-.2-.15-.47-.29-.62-.49-.02-.03-1.09-.9-1.13-.94,.03,.21,.74,1.07,.82,1.23,.2,.39,.8,.96,1.17,1.19,.34,.21,1.04,.15,1.43,.17,.71,.03,1.46-.63,2.07-.96,.31-.17,1.22-.34,1.58-.4,.68-.11,.7,.34,1.27,.74,.4,.28,.05,.81-.06,1.26-.07,.3-.28,.49-.55,.58-.51,.18-1.09,.04-1.54-.28-.14-.1-.93-.49-1.29-.44,.04,.15,.87,.22,1.3,.8,.32,.15,.6,.15,1.53,.42-.11,.34-.52,.44-.93,.39-.16-.02-.64,.09-.8,.05-.19-.05-.46,.37-.56,.54-.06,.11,.07,.24,.08,.37,.05-.1,.1-.4,.19-.48,.06-.06,.46-.21,.54-.21,.45-.01,1.56,.28,1.96,.5,.5,.29,.64,.37,1.22,.35,.22-.01,.6,.13,.77-.03,.31,.2,.19,.13,.54,.28,.06,.02-.11,.23-.17,.32-.27,.38-.55,.75-.89,1.07-.15,.14-.32,.26-.47,.4-.28,.26-.38,.59-.43,.96-.08,.54-.39,.56-.76,1.01-.24,.29-.7,.35-1.04,.5-.42,.18-.69,.24-1.15,.22-.3-.01-.53-.1-.81-.21-.02,0-1.2-.75-1.23-.77,.02,.07,.99,.96,1.03,.98,.36,.15,.85,.32,1.23,.38,.24,.04,.64-.12,.88-.19,.43-.12,.86-.14,1.23-.38,.17-.11,.64-.46,.82-.57,.28-.17,.39,.64,.55,.93,.15,.28,.08,.38,.05,.69,0,.02-.02,.25-.01,.27l-.06,.13c-.06,.15-.21,.23-.24,.43-.27,.24-.44,.25-1.11,.26-.41,0-.92-.09-1.3-.21-.4-.12-.79-.26-1.19-.38-.08-.02-.65-.16-.74-.15,.16,.06,.83,.38,.99,.44,.44,.17,.92,.33,1.36,.48,.4,.14,.73,.19,1.16,.32,.42,0,.83,.05,1.17-.2,.15-.11,.39-.14,.56-.2,.33-.12,.47,.11,.74,.3,.47,.32,.58,.78,.51,1.32-.03,.24-.09,.46-.17,.68-.17,.44-.53,.65-.95,.77-.65,.18-1.26,.05-1.82-.32-.36-.24-.51-.84-.84-1.1-.41-.32-1.31-.5-1.69-.13-.17,.16-.29,.19-.33,.44-.01,.1-.05,.4,.01,.49,0-.22,.14-.56,.42-.81,.4-.23,.85,.11,1.32,.4,.25,.16,.47,.51,.68,.72,.31,.3,.65,.57,.97,.86,.25,.23,.46,.49,.51,.84,.07,.44-.14,.95-.71,.99-.41,.03-.79-.08-1.16-.23-.3-.13-.6-.28-.9-.42-.42-.19-.81-.45-1.26-.39-.32,.05-.75-.1-1.01,.09-.02,.02-.09,.09-.11,.12,.01,.04,.14-.02,.17-.02,.53,.02,.96,.14,1.5,.28,.4,.09,.8,.47,1.17,.66,.38,.2,.63,.49,.72,.92,.06,.3-.08,.49-.31,.6-.37,.17-.77,.19-1.17,.14-.08,0-.16-.02-.27-.03,.24,.12,.46,.2,.69,.27,.45,.14,.91,.18,1.37,.24,.39,.05,.77,.11,1.13,.27l.66,.51c.17,.24,.25,.53,.24,.87-.01,.28-.16,.51-.37,.68-.45,.36-.97,.54-1.53,.62-.49,.06-.94-.07-1.39-.24-.15-.06-.29-.15-.43-.23,.14,.2,.31,.37,.55,.46,.26,.1,.53,.19,.78,.29,.13,.05,.29,.11,.31,.27,.02,.16-.11,.25-.22,.33-.19,.15-.38,.3-.59,.42-.3,.17-.63,.24-.97,.27-.13,.01-.25,.02-.38,.03,.48,.07,.96,.1,1.44,.02,.19-.03,.38-.05,.58-.02,.48,.08,.64,.46,.51,.88-.17,.56-.56,.91-1.08,1.14-.59,.26-1.22,.32-1.85,.28-.47-.03-.92-.16-1.36-.32-.4-.14-.79-.31-1.19-.45-.49-.16-.96-.08-1.43,.1-.23,.09-.43,.21-.59,.4-.04,.04-.07,.08-.08,.16,.16-.06,.31-.12,.47-.17,.62-.17,1.21-.08,1.77,.19,.29,.14,.56,.3,.85,.43,.64,.31,1.32,.49,2.02,.6,.31,.05,.62,.08,.97,.07-.33,.29-.65,.54-.99,.76,.2-.04,.39-.08,.59-.11,.48-.07,.95-.15,1.43-.04"/>
  <path class="cls-2" d="M31.2,38.65c0-.16,0-.31,0-.47-.47,.87-1.21,.58-1.89,.52,.01,.12,.1,.17,.15,.24,.27,.33,.66,.48,.99,.72,.43,.32,.43,.57,0,.87-.13,.09-.12,.14-.05,.27,.19,.35,.15,.65-.11,.95-.18,.21-.41,.34-.61,.52-.18,.16-.37,.2-.59,.21-.28,.01-.54-.07-.81-.06h0c.16,.26,.42,.35,.66,.47,.29,.15,.61,.19,.91,.3,.24,.09,.42,.26,.4,.58-.01,.26-.19,.5-.45,.58-.1,.03-.21,.04-.31,.07-.36,.08-.63,.38-.7,.79,.09-.05,.17-.1,.26-.14,.32-.15,.68,0,.83,.35,.14,.32,.02,.68-.31,.85-.4,.21-.8,.29-1.22,.07-.49-.25-.97-.53-1.5-.65-.54-.13-1.08-.28-1.64-.1-.16,.05-.33,.1-.44,.28,.64-.02,1.26,.04,1.86,.29,.13,.05,.28,.13,.28,.31,0,.18-.16,.25-.29,.3-.24,.1-.5,.13-.76,.17,.25,.16,.52,.24,.81,.26,.76,.06,1.51-.16,2.27-.12,.49,.03,.96,.14,1.33,.55,.17,.19,.23,.42,.2,.67-.03,.22-.24,.17-.36,.23-.3,.16-.54,.37-.63,.74,.07,0,.12-.04,.18-.07,.37-.23,.76-.11,1.01,.31,.15,.26,.06,.55-.29,.83-.25,.21-.54,.39-.77,.62-.31,.31-.66,.35-1.06,.31-.31-.03-.61-.07-.93-.11,.04,.1,.1,.12,.15,.14,.34,.18,.71,.21,1.06,.35,.2,.08,.41,.14,.53,.36,.11,.19,0,.37-.05,.59,.15-.07,.27-.07,.39-.07,.22,0,.37,.12,.46,.33,.07,.17,.1,.37-.02,.53-.14,.18-.33,.17-.51,.11-.29-.09-.57-.11-.87-.09-.35,.03-.67,.15-1.01,.38,.75,.07,1.33,.44,1.9,.8,.41,.26,.65,.68,.75,1.19,.15,.75-.23,1.52-.87,1.78-.15,.06-.32,.1-.44,.34,.19-.11,.34-.09,.49-.09,.36,0,.57,.37,.43,.73-.12,.31-.38,.36-.64,.38-.62,.04-1.23-.08-1.85-.15-.52-.06-1.04-.05-1.54,.18-.17,.08-.37,.15-.49,.38,.2-.04,.36-.1,.53-.11,.64-.04,1.26,.13,1.87,.32,.19,.06,.28,.2,.29,.43,.02,.64-.28,1.14-.66,1.54-.39,.41-.89,.67-1.43,.78-.4,.08-.79,.18-1.18,.34-.53,.21-.82,.42-1.03,.78,.66-.43,1.32-.62,2.04-.55,.04,0,.09-.02,.13-.03,.82-.21,1.55-.66,2.26-1.14,.2-.14,.43-.21,.66-.16,.52,.11,.95,.4,1.28,.87,0,0,.02,0,.02,.01,0,0,0,.01,0,.02,0-.01-.01-.02-.02-.03-.33,0-.66-.03-.94,.26,.33,.11,.52,.26,.94,.77,0,0,.21,.69,.58-.45,.61-1.85,1.13-13.4,.37-24.33Z"/>
  <path class="cls-2" d="M31.86,32.22c0,9.57-.17,14.72-.17,24.28,0,.18,0,.37,0,.55-.3-.59-.68-.99-1.18-1.19,.05-.12,.12-.17,.17-.25,.89-1.19,.76-2.65,.21-3.94-.22-.5-.49-.86-.94-.68,.06-.62,.24-1.03,.59-1.28,.32-.23,.35-.58,.08-.96-.12-.17-.26-.24-.43-.26-.21-.03-.37,.17-.56,.29,.02-.28,.11-.43,.19-.57,.27-.48,.6-.82,.98-1.04,.38-.22,.66-.61,.73-1.26,.16-1.41-.42-3.25-1.44-3.55-.6-.18-1.2-.42-1.74-.92-.25-.23-.52-.47-.67-1.01,.18,.12,.31,.21,.45,.29,.46,.26,.93,.4,1.4,.01,.41-.34,.48-.97,.17-1.53-.29-.52-.62-.6-1.05-.23,.12-.73,.37-1.07,.73-1.27,.26-.14,.31-.36,.18-.75-.13-.39-.36-.6-.61-.73-.42-.22-.85-.32-1.29-.31-.24,0-.48,0-.67,.28-.04,.03-.08,.06-.12,.09,.21-.84,.7-1.03,1.17-1.25,.28-.13,.57-.18,.85-.29,.12-.05,.26-.12,.28-.35,.02-.23-.1-.37-.21-.46-.75-.62-1.51-.84-2.29-.12-.78,.45-1.53,.36-2.26-.31h0c.41-.02,.82,.18,1.24,.04,.35-.12,.67-.31,.97-.63,.24-.25,.51-.45,.8-.54,.13-.03,.27-.07,.4-.1,.18,0,.37,0,.55,.01,.35,.17,.69,.36,1.04,.5,.27,.11,.52,0,.69-.41,.16-.39,1.68-.51,1.77-.14Z"/>
  <path class="cls-3" d="M70.7,39.36c-.07,.01-.14,.03-.06,.12,.04,.05,.08,.09,.16,.1,.12,.02,.24,.04,.34,.17-.02-.29-.18-.42-.44-.38Z"/>
  <path class="cls-3" d="M73.72,38.55c.02,.08,.03,.17,.14,.16,.06,0,.13-.02,.13-.1,0-.09-.06-.14-.14-.15-.05,0-.12,.04-.13,.1Z"/>
  <path class="cls-3" d="M71.33,52.23c-.06-.02-.17,.1-.16,.17,.01,.09,.05,.17,.17,.17,.1,0,.19-.08,.19-.17,0-.12-.11-.14-.2-.17Z"/>
  <path class="cls-3" d="M76.81,43.89c0,.07,.03,.12,.1,.12,.06,0,.1-.04,.1-.1,0-.06-.02-.1-.09-.1-.07,0-.11,.02-.1,.09Z"/>
  <path class="cls-3" d="M72.88,39.26c0,.05,0,.1,.07,.09,.05,0,.09-.04,.09-.1,0-.05-.04-.09-.09-.08-.04,0-.09,.03-.07,.08Z"/>
  <path class="cls-3" d="M75.12,33.11s.02,.07,.07,.08c.01-.03,.07-.02,.07-.07,0-.06-.04-.07-.07-.08-.05-.01-.07,.03-.07,.07Z"/>
  <path class="cls-1" d="M76.06,37.96c.13-.04,.27-.07,.4-.18-.09,0-.15,0-.21-.03-.05-.02-.12-.01-.13-.09,0-.08,.03-.12,.09-.16,.21-.13,.44-.09,.66-.06,.16,.03,.32,.07,.5,.11-.21-.31-.65-.47-1.02-.39-.36,.08-.7,.21-1,.42-.36,.24-.73,.25-1.08,0,0,.07,.03,.11,.06,.15,.24,.3,.59,.35,.94,.34,.27,0,.53-.05,.79-.13Z"/>
  <path class="cls-1" d="M73.5,48.7c-.13-.12-.3-.13-.46-.14-.18-.01-.34,.09-.49,.21,.16,.06,.31,.05,.46,0,.15-.06,.31-.09,.48-.07Z"/>
  <path class="cls-1" d="M75.71,57.2s-.01-.04-.03-.04c-.07,0-.15-.04-.22,0-.11,.07-.23,.13-.39,.11,.11,.12,.23,.15,.35,.14,.13-.01,.22-.12,.28-.22Z"/>
  <path class="cls-1" d="M80.02,62.2c0-.1-.07-.16-.2-.16-.11-.01-.14,.08-.16,.14-.03,.08,.09,.2,.18,.2,.09,0,.18-.08,.18-.18Z"/>
  <path class="cls-1" d="M74.41,49.22c-.17-.2-.24-.2-.4-.03,.12,.11,.25,0,.4,.03Z"/>
  <path class="cls-1" d="M64.1,49.4c-.09-.07,.07-2.53,0-2.64,0,.21,0,.41,0,.62,0,.05,0,.1,0,.15,0,2.56,0,5.11,0,7.67,0,.93,0,1.86,0,2.8,0,.57,0,1.81,0,1.86m0-.05c.01,3.04,0,4.19,0,4.19h7.69c.91-.28,2.65-2.73,3.53-2.84,.26-.03,.54,0,.8,.06,.64,.14,1.21,.39,1.66,.86,.21,.21,.37,.45,.3,.81,.31-.49,.38-.97,.23-1.49-.14-.46-.42-.84-.75-1.18-.35-.37-.74-.68-1.23-.88-.22-.09-.46-.17-.69-.19-.31-.03-.63-.03-.94,.03-.31,.06-.61,.15-.88,.3-.34,.18-.66,.37-1.03,.49-.37,.12-.75,.18-1.14,.12-.46-.06-.85-.25-1.18-.58-.27-.27-.25-.57,.07-.79,.14-.1,.29-.16,.46-.2,.37-.09,.7-.04,1,.19,.35,.27,.72,.41,1.16,.31,.43-.09,.83-.51,.84-.87-.12,.15-.39,.36-.57,.45-.3,.15-.64,.13-.88-.13-.18-.19-.37-.36-.6-.51-.17-.11-.34-.21-.54-.25-.1-.02-.21,0-.31-.01-.04,0-.09,.01-.06-.06,.08-.19,.22-.34,.5-.35,.15,0,.28,.08,.42,.08,.36,.01,.73-.28,.8-.66,.06-.35-.1-.62-.5-.81,.03,.08,.05,.16,.08,.24,.03,.08,0,.17,0,.25,0,.26-.29,.51-.56,.45-.24-.04-.43-.16-.65-.24-.38-.15-.74-.36-1.13-.5-.41-.14-.82-.24-1.26-.16-.08,.01-.14,.07-.25,.05,.29-.26,.54-.55,.73-.87,.17-.29,.31-.58,.38-.91,.02-.07,.02-.05,.02-.12,0-.12-.02-.08,0-.23,0-.17,0-.18,.02-.28,.01-.1,.12-.43,.14-.5,.08-.53,.31-.63,.75-.93,.56-.4,1.2-.56,1.89-.49,.59,.06,1.08,.3,1.52,.68,.44,.38,.75,.86,1,1.38,0-.01,.01-.02,.01-.02,0,0,0-.02,0-.03-.12-.67-.51-1.55-1.1-2.03,0,0-.01-.01-.02-.02-.15-.14-.32-.26-.5-.35-.37-.19-.77-.3-1.18-.36-.3-.04-.61-.06-.9-.01-.38,.06-.75,.18-1.1,.37-.32,.18-.61,.4-.93,.59-.12,.07-.21,.07-.29-.04-.05-.07-.09-.14-.12-.21-.1-.24-.1-.48-.05-.73,.1-.51,.36-.9,.88-1.09,.45-.17,.91-.12,1.36-.01,.53,.13,1.03,.34,1.56,.47,.48,.12,.96,.21,1.45,.25,.37,.02,.74,.02,1.11-.03,.14-.04,.3-.03,.43-.13h0c.15,0,.28-.08,.41-.14,.29-.11,.51-.3,.68-.55-.15,.1-.3,.21-.46,.3-.02,.01-.08,.03-.05,.08-.15,0-.26,.11-.4,.13-.02,0-.03,0-.03,.01h0c-.26,.04-.51,.12-.77,.13-.25,0-.49-.01-.74-.04-.32-.04-.64-.1-.94-.2-.28-.09-.55-.2-.82-.3-.31-.12-.62-.25-.94-.35-.51-.17-1.01-.37-1.54-.48-.62-.13-1.21-.08-1.76,.24-.05,.03-.11,.05-.17,.05-.43,.02-.76-.23-.79-.69-.04-.56,.25-1.01,.77-1.15,.27-.07,.55-.06,.82,0,.53,.11,.99,.36,1.43,.67,.24,.17,.51,.29,.8,.31,.61,.04,1.12-.18,1.49-.65,.14-.18,.23-.38,.19-.62-.07-.41-.51-.54-.91-.56,.09,.07,.19,.13,.28,.2,.16,.12,.19,.3,.15,.47-.11,.45-.6,.66-1.01,.43-.16-.09-.3-.2-.42-.35-.15-.18-.33-.32-.47-.5-.16-.2-.35-.38-.56-.52-.27-.18-.49-.4-.63-.68-.12-.25-.15-.59,.08-.77,.2-.16,.42-.15,.64-.08,.66,.22,1.3,.49,1.99,.64,.38,.09,.77,.13,1.16,.13,.74-.01,1.4-.26,1.99-.68,.18-.13,.34-.27,.53-.42-.11-.02-.19,0-.26,.02-.45,.09-.9,.13-1.36,.15-.27,.01-.55-.01-.82-.04-.39-.04-.77-.11-1.14-.25-.26-.09-.49-.23-.7-.4-.18-.15-.33-.34-.43-.55-.13-.28,.07-.61,.41-.66,.59-.09,1.15-.01,1.65,.33,.01-.03,0-.06-.03-.09-.21-.26-.43-.49-.72-.67-.5-.32-1.05-.46-1.62-.54-.44-.06-.87-.13-1.3-.26-.5-.16-.85-.72-.76-1.23,.05-.32,.26-.54,.53-.71,.78-.49,1.58-.42,2.38-.04,.3,.14,.57,.34,.83,.56,.06-.43-.1-.77-.39-1.06-.35-.35-.81-.5-1.27-.65-.11-.03-.08-.06-.04-.11,.38-.46,.86-.75,1.46-.87,.11-.02,.22-.03,.33-.05,.41,0,.81,.06,1.21,.19-.07-.03-.1-.1-.16-.14-.71-.47-1.51-.55-2.33-.5-.19,.01-.36-.02-.52-.08-.28-.1-.34-.28-.14-.5,.13-.15,.28-.3,.43-.43,.45-.4,.99-.62,1.61-.64,.7-.03,1.36,.15,1.99,.41,.73,.29,1.47,.39,2.24,.21,.43-.1,.82-.29,1.16-.54,.18-.13,.34-.3,.47-.5,.37-.56,.46-1.13,.12-1.73-.04,.05-.06,.1-.07,.15-.11,.41-.31,.78-.63,1.07-.38,.35-.85,.44-1.36,.34-.48-.09-.93-.26-1.38-.44-.63-.26-1.24-.58-1.9-.76-.3-.09-.61-.14-.92-.16-.03,0-.06,0-.07-.02-.02-.03,.01-.06,.04-.07,.12-.09,.24-.16,.39-.21,.51-.18,1.01-.12,1.51,.02,.27,.08,.52,.18,.82,.29-.12-.17-.26-.25-.4-.33-.62-.38-1.3-.45-2-.37-.49,.06-.95,.31-1.52,.3-.23,0-.5-.57-.71-.78l-6.04,.06c-.29,.16-.02,13.44-.02,13.44,0,.07,0,.14,0,.22m8.41,13.04h0s-.01,0-.02,0c0,0,.01,0,.02,0Zm3.17-8.55s-.08,.05-.11,.09c.03-.03,.08-.05,.11-.09Zm-7.41-17.96h0s0,0,0,0Z"/>
  <path class="cls-4" d="M69.06,32.52c-2.45-.9-3.74,.21-3.74,.21-.46,5.05-.66,9.57-.71,13.46,0,.06,0,.11,0,.17-.06,4.79,.1,8.61,.28,11.3,0,.03,0,.07,0,.1,.2,2.87,.43,4.42,.43,4.42,.59,.49,2.38,1.05,3.68,.96-.12,.04,.59,.07,.45,.08,0,0,1.54,.56,3.06-1.73,.34-.4,.82-.75,1.3-.98,.34-.16,.84-.44,1.22-.44,.56,0,.87,.18,1.31,.5,.2,.15,.47,.29,.62,.49,.02,.03,1.09,.9,1.13,.94-.03-.21-.74-1.07-.82-1.23-.2-.39-.8-.96-1.17-1.19-.34-.21-1.04-.15-1.43-.17-.71-.03-1.46,.63-2.07,.96-.31,.17-1.22,.34-1.58,.4-.68,.11-.7-.34-1.27-.74-.4-.28-.05-.81,.06-1.26,.07-.3,.28-.49,.55-.58,.51-.18,1.09-.04,1.54,.28,.14,.1,.93,.49,1.29,.44-.04-.15-.87-.22-1.3-.8-.32-.15-.6-.15-1.53-.42,.11-.34,.52-.44,.93-.39,.16,.02,.64-.09,.8-.05,.19,.05,.46-.37,.56-.54,.06-.11-.07-.24-.08-.37-.05,.1-.1,.4-.19,.48-.06,.06-.46,.21-.54,.21-.45,.01-1.56-.28-1.96-.5-.5-.29-.64-.37-1.22-.35-.22,.01-.6-.13-.77,.03-.31-.2-.19-.13-.54-.28-.06-.02,.11-.23,.17-.32,.27-.38,.55-.75,.89-1.07,.15-.14,.32-.26,.47-.4,.28-.26,.38-.59,.43-.96,.08-.54,.39-.56,.76-1.01,.24-.29,.7-.35,1.04-.5,.42-.18,.69-.24,1.15-.22,.3,.01,.53,.1,.81,.21,.02,0,1.2,.75,1.23,.77-.02-.07-.99-.96-1.03-.98-.36-.15-.85-.32-1.23-.38-.24-.04-.64,.12-.88,.19-.43,.12-.86,.14-1.23,.38-.17,.11-.64,.46-.82,.57-.28,.17-.39-.64-.55-.93-.15-.28-.08-.38-.05-.69,0-.02,.02-.25,.01-.27l.06-.13c.06-.15,.21-.23,.24-.43,.27-.24,.44-.25,1.11-.26,.41,0,.92,.09,1.3,.21,.4,.12,.79,.26,1.19,.38,.08,.02,.65,.16,.74,.15-.16-.06-.83-.38-.99-.44-.44-.17-.92-.33-1.36-.48-.4-.14-.73-.19-1.16-.32-.42,0-.83-.05-1.17,.2-.15,.11-.39,.14-.56,.2-.33,.12-.47-.11-.74-.3-.47-.32-.58-.78-.51-1.32,.03-.24,.09-.46,.17-.68,.17-.44,.53-.65,.95-.77,.65-.18,1.26-.05,1.82,.32,.36,.24,.51,.84,.84,1.1,.41,.32,1.31,.5,1.69,.13,.17-.16,.29-.19,.33-.44,.01-.1,.05-.4-.01-.49,0,.22-.14,.56-.42,.81-.4,.23-.85-.11-1.32-.4-.25-.16-.47-.51-.68-.72-.31-.3-.65-.57-.97-.86-.25-.23-.46-.49-.51-.84-.07-.44,.14-.95,.71-.99,.41-.03,.79,.08,1.16,.23,.3,.13,.6,.28,.9,.42,.42,.19,.81,.45,1.26,.39,.32-.05,.75,.1,1.01-.09,.02-.02,.09-.09,.11-.12-.01-.04-.14,.02-.17,.02-.53-.02-.96-.14-1.5-.28-.4-.09-.8-.47-1.17-.66-.38-.2-.63-.49-.72-.92-.06-.3,.08-.49,.31-.6,.37-.17,.77-.19,1.17-.14,.08,0,.16,.02,.27,.03-.24-.12-.46-.2-.69-.27-.45-.14-.91-.18-1.37-.24-.39-.05-.77-.11-1.13-.27l-.66-.51c-.17-.24-.25-.53-.24-.87,.01-.28,.16-.51,.37-.68,.45-.36,.97-.54,1.53-.62,.49-.06,.94,.07,1.39,.24,.15,.06,.29,.15,.43,.23-.14-.2-.31-.37-.55-.46-.26-.1-.53-.19-.78-.29-.13-.05-.29-.11-.31-.27-.02-.16,.11-.25,.22-.33,.19-.15,.38-.3,.59-.42,.3-.17,.63-.24,.97-.27,.13-.01,.25-.02,.38-.03-.48-.07-.96-.1-1.44-.02-.19,.03-.38,.05-.58,.02-.48-.08-.64-.46-.51-.88,.17-.56,.56-.91,1.08-1.14,.59-.26,1.22-.32,1.85-.28,.47,.03,.92,.16,1.36,.32,.4,.14,.79,.31,1.19,.45,.49,.16,.96,.08,1.43-.1,.23-.09,.43-.21,.59-.4,.04-.04,.07-.08,.08-.16-.16,.06-.31,.12-.47,.17-.62,.17-1.21,.08-1.77-.19-.29-.14-.56-.3-.85-.43-.64-.31-1.32-.49-2.02-.6-.31-.05-.62-.08-.97-.07,.33-.29,.65-.54,.99-.76-.2,.04-.39,.08-.59,.11-.48,.07-.95,.15-1.43,.04"/>
  <path class="cls-2" d="M64.8,57.35c0,.16,0,.31,0,.47,.47-.87,1.21-.58,1.89-.52-.01-.12-.1-.17-.15-.24-.27-.33-.66-.48-.99-.72-.43-.32-.43-.57,0-.87,.13-.09,.12-.14,.05-.27-.19-.35-.15-.65,.11-.95,.18-.21,.41-.34,.61-.52,.18-.16,.37-.2,.59-.21,.28-.01,.54,.07,.81,.06h0c-.16-.26-.42-.35-.66-.47-.29-.15-.61-.19-.91-.3-.24-.09-.42-.26-.4-.58,.01-.26,.19-.5,.45-.58,.1-.03,.21-.04,.31-.07,.36-.08,.63-.38,.7-.79-.09,.05-.17,.1-.26,.14-.32,.15-.68,0-.83-.35-.14-.32-.02-.68,.31-.85,.4-.21,.8-.29,1.22-.07,.49,.25,.97,.53,1.5,.65,.54,.13,1.08,.28,1.64,.1,.16-.05,.33-.1,.44-.28-.64,.02-1.26-.04-1.86-.29-.13-.05-.28-.13-.28-.31,0-.18,.16-.25,.29-.3,.24-.1,.5-.13,.76-.17-.25-.16-.52-.24-.81-.26-.76-.06-1.51,.16-2.27,.12-.49-.03-.96-.14-1.33-.55-.17-.19-.23-.42-.2-.67,.03-.22,.24-.17,.36-.23,.3-.16,.54-.37,.63-.74-.07,0-.12,.04-.18,.07-.37,.23-.76,.11-1.01-.31-.15-.26-.06-.55,.29-.83,.25-.21,.54-.39,.77-.62,.31-.31,.66-.35,1.06-.31,.31,.03,.61,.07,.93,.11-.04-.1-.1-.12-.15-.14-.34-.18-.71-.21-1.06-.35-.2-.08-.41-.14-.53-.36-.11-.19,0-.37,.05-.59-.15,.07-.27,.07-.39,.07-.22,0-.37-.12-.46-.33-.07-.17-.1-.37,.02-.53,.14-.18,.33-.17,.51-.11,.29,.09,.57,.11,.87,.09,.35-.03,.67-.15,1.01-.38-.75-.07-1.33-.44-1.9-.8-.41-.26-.65-.68-.75-1.19-.15-.75,.23-1.52,.87-1.78,.15-.06,.32-.1,.44-.34-.19,.11-.34,.09-.49,.09-.36,0-.57-.37-.43-.73,.12-.31,.38-.36,.64-.38,.62-.04,1.23,.08,1.85,.15,.52,.06,1.04,.05,1.54-.18,.17-.08,.37-.15,.49-.38-.2,.04-.36,.1-.53,.11-.64,.04-1.26-.13-1.87-.32-.19-.06-.28-.2-.29-.43-.02-.64,.28-1.14,.66-1.54,.39-.41,.89-.67,1.43-.78,.4-.08,.79-.18,1.18-.34,.53-.21,.82-.42,1.03-.78-.66,.43-1.32,.62-2.04,.55-.04,0-.09,.02-.13,.03-.82,.21-1.55,.66-2.26,1.14-.2,.14-.43,.21-.66,.16-.52-.11-.95-.4-1.28-.87,0,0-.02,0-.02-.01,0,0,0-.01,0-.02,0,.01,.01,.02,.02,.03,.33,0,.66,.03,.94-.26-.33-.11-.52-.26-.94-.77,0,0-.21-.69-.58,.45-.61,1.85-1.13,13.4-.37,24.33Z"/>
  <path class="cls-2" d="M64.14,63.78c0-9.57,.17-14.72,.17-24.28,0-.18,0-.37,0-.55,.3,.59,.68,.99,1.18,1.19-.05,.12-.12,.17-.17,.25-.89,1.19-.76,2.65-.21,3.94,.22,.5,.49,.86,.94,.68-.06,.62-.24,1.03-.59,1.28-.32,.23-.35,.58-.08,.96,.12,.17,.26,.24,.43,.26,.21,.03,.37-.17,.56-.29-.02,.28-.11,.43-.19,.57-.27,.48-.6,.82-.98,1.04-.38,.22-.66,.61-.73,1.26-.16,1.41,.42,3.25,1.44,3.55,.6,.18,1.2,.42,1.74,.92,.25,.23,.52,.47,.67,1.01-.18-.12-.31-.21-.45-.29-.46-.26-.93-.4-1.4-.01-.41,.34-.48,.97-.17,1.53,.29,.52,.62,.6,1.05,.23-.12,.73-.37,1.07-.73,1.27-.26,.14-.31,.36-.18,.75,.13,.39,.36,.6,.61,.73,.42,.22,.85,.32,1.29,.31,.24,0,.48,0,.67-.28,.04-.03,.08-.06,.12-.09-.21,.84-.7,1.03-1.17,1.25-.28,.13-.57,.18-.85,.29-.12,.05-.26,.12-.28,.35-.02,.23,.1,.37,.21,.46,.75,.62,1.51,.84,2.29,.12,.78-.45,1.53-.36,2.26,.31h0c-.41,.02-.82-.18-1.24-.04-.35,.12-.67,.31-.97,.63-.24,.25-.51,.45-.8,.54-.13,.03-.27,.07-.4,.1-.18,0-.37,0-.55-.01-.35-.17-.69-.36-1.04-.5-.27-.11-.52,0-.69,.41-.16,.39-1.68,.51-1.77,.14Z"/>
  <path class="cls-3" d="M56.64,70.7c-.01-.07-.03-.14-.12-.06-.05,.04-.09,.08-.1,.16-.02,.12-.04,.24-.17,.34,.29-.02,.42-.18,.38-.44Z"/>
  <path class="cls-3" d="M57.45,73.72c-.08,.02-.17,.03-.16,.14,0,.06,.02,.13,.1,.13,.09,0,.14-.06,.15-.14,0-.05-.04-.12-.1-.13Z"/>
  <path class="cls-3" d="M43.77,71.33c.02-.06-.1-.17-.17-.16-.09,.01-.17,.05-.17,.17,0,.1,.08,.19,.17,.19,.12,0,.14-.11,.17-.2Z"/>
  <path class="cls-3" d="M52.11,76.81c-.07,0-.12,.03-.12,.1,0,.06,.04,.1,.1,.1,.06,0,.1-.02,.1-.09,0-.07-.02-.11-.09-.1Z"/>
  <path class="cls-3" d="M56.74,72.88c-.05,0-.1,0-.09,.07,0,.05,.04,.09,.1,.09,.05,0,.09-.04,.08-.09,0-.04-.03-.09-.08-.07Z"/>
  <path class="cls-3" d="M62.89,75.12s-.07,.02-.08,.07c.03,.01,.02,.07,.07,.07,.06,0,.07-.04,.08-.07,.01-.05-.03-.07-.07-.07Z"/>
  <path class="cls-1" d="M58.04,76.06c.04,.13,.07,.27,.18,.4,0-.09,0-.15,.03-.21,.02-.05,.01-.12,.09-.13,.08,0,.12,.03,.16,.09,.13,.21,.09,.44,.06,.66-.03,.16-.07,.32-.11,.5,.31-.21,.47-.65,.39-1.02-.08-.36-.21-.7-.42-1-.24-.36-.25-.73,0-1.08-.07,0-.11,.03-.15,.06-.3,.24-.35,.59-.34,.94,0,.27,.05,.53,.13,.79Z"/>
  <path class="cls-1" d="M47.3,73.5c.12-.13,.13-.3,.14-.46,.01-.18-.09-.34-.21-.49-.06,.16-.05,.31,0,.46,.06,.15,.09,.31,.07,.48Z"/>
  <path class="cls-1" d="M38.8,75.71s.04-.01,.04-.03c0-.07,.04-.15,0-.22-.07-.11-.13-.23-.11-.39-.12,.11-.15,.23-.14,.35,.01,.13,.12,.22,.22,.28Z"/>
  <path class="cls-1" d="M33.8,80.02c.1,0,.16-.07,.16-.2,.01-.11-.08-.14-.14-.16-.08-.03-.2,.09-.2,.18,0,.09,.08,.18,.18,.18Z"/>
  <path class="cls-1" d="M46.78,74.41c.2-.17,.2-.24,.03-.4-.11,.12,0,.25-.03,.4Z"/>
  <path class="cls-1" d="M46.6,64.1c.07-.09,2.53,.07,2.64,0-.21,0-.41,0-.62,0-.05,0-.1,0-.15,0-2.56,0-5.11,0-7.67,0-.93,0-1.86,0-2.8,0-.57,0-1.81,0-1.86,0m.05,0c-3.04,.01-4.19,0-4.19,0v7.69c.28,.91,2.73,2.65,2.84,3.53,.03,.26,0,.54-.06,.8-.14,.64-.39,1.21-.86,1.66-.21,.21-.45,.37-.81,.3,.49,.31,.97,.38,1.49,.23,.46-.14,.84-.42,1.18-.75,.37-.35,.68-.74,.88-1.23,.09-.22,.17-.46,.19-.69,.03-.31,.03-.63-.03-.94-.06-.31-.15-.61-.3-.88-.18-.34-.37-.66-.49-1.03-.12-.37-.18-.75-.12-1.14,.06-.46,.25-.85,.58-1.18,.27-.27,.57-.25,.79,.07,.1,.14,.16,.29,.2,.46,.09,.37,.04,.7-.19,1-.27,.35-.41,.72-.31,1.16,.09,.43,.51,.83,.87,.84-.15-.12-.36-.39-.45-.57-.15-.3-.13-.64,.13-.88,.19-.18,.36-.37,.51-.6,.11-.17,.21-.34,.25-.54,.02-.1,0-.21,.01-.31,0-.04-.01-.09,.06-.06,.19,.08,.34,.22,.35,.5,0,.15-.08,.28-.08,.42-.01,.36,.28,.73,.66,.8,.35,.06,.62-.1,.81-.5-.08,.03-.16,.05-.24,.08-.08,.03-.17,0-.25,0-.26,0-.51-.29-.45-.56,.04-.24,.16-.43,.24-.65,.15-.38,.36-.74,.5-1.13,.14-.41,.24-.82,.16-1.26-.01-.08-.07-.14-.05-.25,.26,.29,.55,.54,.87,.73,.29,.17,.58,.31,.91,.38,.07,.02,.05,.02,.12,.02,.12,0,.08-.02,.23,0,.17,0,.18,0,.28,.02,.1,.01,.43,.12,.5,.14,.53,.08,.63,.31,.93,.75,.4,.56,.56,1.2,.49,1.89-.06,.59-.3,1.08-.68,1.52-.38,.44-.86,.75-1.38,1,.01,0,.02,.01,.02,.01,0,0,.02,0,.03,0,.67-.12,1.55-.51,2.03-1.1,0,0,.01-.01,.02-.02,.14-.15,.26-.32,.35-.5,.19-.37,.3-.77,.36-1.18,.04-.3,.06-.61,.01-.9-.06-.38-.18-.75-.37-1.1-.18-.32-.4-.61-.59-.93-.07-.12-.07-.21,.04-.29,.07-.05,.14-.09,.21-.12,.24-.1,.48-.1,.73-.05,.51,.1,.9,.36,1.09,.88,.17,.45,.12,.91,.01,1.36-.13,.53-.34,1.03-.47,1.56-.12,.48-.21,.96-.25,1.45-.02,.37-.02,.74,.03,1.11,.04,.14,.03,.3,.13,.43h0c0,.15,.08,.28,.14,.41,.11,.29,.3,.51,.55,.68-.1-.15-.21-.3-.3-.46-.01-.02-.03-.08-.08-.05,0-.15-.11-.26-.13-.4,0-.02,0-.03-.01-.03h0c-.04-.26-.12-.51-.13-.77,0-.25,.01-.49,.04-.74,.04-.32,.1-.64,.2-.94,.09-.28,.2-.55,.3-.82,.12-.31,.25-.62,.35-.94,.17-.51,.37-1.01,.48-1.54,.13-.62,.08-1.21-.24-1.76-.03-.05-.05-.11-.05-.17-.02-.43,.23-.76,.69-.79,.56-.04,1.01,.25,1.15,.77,.07,.27,.06,.55,0,.82-.11,.53-.36,.99-.67,1.43-.17,.24-.29,.51-.31,.8-.04,.61,.18,1.12,.65,1.49,.18,.14,.38,.23,.62,.19,.41-.07,.54-.51,.56-.91-.07,.09-.13,.19-.2,.28-.12,.16-.3,.19-.47,.15-.45-.11-.66-.6-.43-1.01,.09-.16,.2-.3,.35-.42,.18-.15,.32-.33,.5-.47,.2-.16,.38-.35,.52-.56,.18-.27,.4-.49,.68-.63,.25-.12,.59-.15,.77,.08,.16,.2,.15,.42,.08,.64-.22,.66-.49,1.3-.64,1.99-.09,.38-.13,.77-.13,1.16,.01,.74,.26,1.4,.68,1.99,.13,.18,.27,.34,.42,.53,.02-.11,0-.19-.02-.26-.09-.45-.13-.9-.15-1.36-.01-.27,.01-.55,.04-.82,.04-.39,.11-.77,.25-1.14,.09-.26,.23-.49,.4-.7,.15-.18,.34-.33,.55-.43,.28-.13,.61,.07,.66,.41,.09,.59,.01,1.15-.33,1.65,.03,.01,.06,0,.09-.03,.26-.21,.49-.43,.67-.72,.32-.5,.46-1.05,.54-1.62,.06-.44,.13-.87,.26-1.3,.16-.5,.72-.85,1.23-.76,.32,.05,.54,.26,.71,.53,.49,.78,.42,1.58,.04,2.38-.14,.3-.34,.57-.56,.83,.43,.06,.77-.1,1.06-.39,.35-.35,.5-.81,.65-1.27,.03-.11,.06-.08,.11-.04,.46,.38,.75,.86,.87,1.46,.02,.11,.03,.22,.05,.33,0,.41-.06,.81-.19,1.21,.03-.07,.1-.1,.14-.16,.47-.71,.55-1.51,.5-2.33-.01-.19,.02-.36,.08-.52,.1-.28,.28-.34,.5-.14,.15,.13,.3,.28,.43,.43,.4,.45,.62,.99,.64,1.61,.03,.7-.15,1.36-.41,1.99-.29,.73-.39,1.47-.21,2.24,.1,.43,.29,.82,.54,1.16,.13,.18,.3,.34,.5,.47,.56,.37,1.13,.46,1.73,.12-.05-.04-.1-.06-.15-.07-.41-.11-.78-.31-1.07-.63-.35-.38-.44-.85-.34-1.36,.09-.48,.26-.93,.44-1.38,.26-.63,.58-1.24,.76-1.9,.09-.3,.14-.61,.16-.92,0-.03,0-.06,.02-.07,.03-.02,.06,.01,.07,.04,.09,.12,.16,.24,.21,.39,.18,.51,.12,1.01-.02,1.51-.08,.27-.18,.52-.29,.82,.17-.12,.25-.26,.33-.4,.38-.62,.45-1.3,.37-2-.06-.49-.31-.95-.3-1.52,0-.23,.57-.5,.78-.71l-.06-6.04c-.16-.29-13.44-.02-13.44-.02-.07,0-.14,0-.22,0m-13.04,8.41h0s0-.01,0-.02c0,0,0,.01,0,.02Zm8.55,3.17s-.05-.08-.09-.11c.03,.03,.05,.08,.09,.11Zm17.96-7.41h0s0,0,0,0Z"/>
  <path class="cls-4" d="M63.48,69.06c.9-2.45-.21-3.74-.21-3.74-5.05-.46-9.57-.66-13.46-.71-.06,0-.11,0-.17,0-4.79-.06-8.61,.1-11.3,.28-.03,0-.07,0-.1,0-2.87,.2-4.42,.43-4.42,.43-.49,.59-1.05,2.38-.96,3.68-.04-.12-.07,.59-.08,.45,0,0-.56,1.54,1.73,3.06,.4,.34,.75,.82,.98,1.3,.16,.34,.44,.84,.44,1.22,0,.56-.18,.87-.5,1.31-.15,.2-.29,.47-.49,.62-.03,.02-.9,1.09-.94,1.13,.21-.03,1.07-.74,1.23-.82,.39-.2,.96-.8,1.19-1.17,.21-.34,.15-1.04,.17-1.43,.03-.71-.63-1.46-.96-2.07-.17-.31-.34-1.22-.4-1.58-.11-.68,.34-.7,.74-1.27,.28-.4,.81-.05,1.26,.06,.3,.07,.49,.28,.58,.55,.18,.51,.04,1.09-.28,1.54-.1,.14-.49,.93-.44,1.29,.15-.04,.22-.87,.8-1.3,.15-.32,.15-.6,.42-1.53,.34,.11,.44,.52,.39,.93-.02,.16,.09,.64,.05,.8-.05,.19,.37,.46,.54,.56,.11,.06,.24-.07,.37-.08-.1-.05-.4-.1-.48-.19-.06-.06-.21-.46-.21-.54-.01-.45,.28-1.56,.5-1.96,.29-.5,.37-.64,.35-1.22-.01-.22,.13-.6-.03-.77,.2-.31,.13-.19,.28-.54,.02-.06,.23,.11,.32,.17,.38,.27,.75,.55,1.07,.89,.14,.15,.26,.32,.4,.47,.26,.28,.59,.38,.96,.43,.54,.08,.56,.39,1.01,.76,.29,.24,.35,.7,.5,1.04,.18,.42,.24,.69,.22,1.15-.01,.3-.1,.53-.21,.81,0,.02-.75,1.2-.77,1.23,.07-.02,.96-.99,.98-1.03,.15-.36,.32-.85,.38-1.23,.04-.24-.12-.64-.19-.88-.12-.43-.14-.86-.38-1.23-.11-.17-.46-.64-.57-.82-.17-.28,.64-.39,.93-.55,.28-.15,.38-.08,.69-.05,.02,0,.25,.02,.27,.01l.13,.06c.15,.06,.23,.21,.43,.24,.24,.27,.25,.44,.26,1.11,0,.41-.09,.92-.21,1.3-.12,.4-.26,.79-.38,1.19-.02,.08-.16,.65-.15,.74,.06-.16,.38-.83,.44-.99,.17-.44,.33-.92,.48-1.36,.14-.4,.19-.73,.32-1.16,0-.42,.05-.83-.2-1.17-.11-.15-.14-.39-.2-.56-.12-.33,.11-.47,.3-.74,.32-.47,.78-.58,1.32-.51,.24,.03,.46,.09,.68,.17,.44,.17,.65,.53,.77,.95,.18,.65,.05,1.26-.32,1.82-.24,.36-.84,.51-1.1,.84-.32,.41-.5,1.31-.13,1.69,.16,.17,.19,.29,.44,.33,.1,.01,.4,.05,.49-.01-.22,0-.56-.14-.81-.42-.23-.4,.11-.85,.4-1.32,.16-.25,.51-.47,.72-.68,.3-.31,.57-.65,.86-.97,.23-.25,.49-.46,.84-.51,.44-.07,.95,.14,.99,.71,.03,.41-.08,.79-.23,1.16-.13,.3-.28,.6-.42,.9-.19,.42-.45,.81-.39,1.26,.05,.32-.1,.75,.09,1.01,.02,.02,.09,.09,.12,.11,.04-.01-.02-.14-.02-.17,.02-.53,.14-.96,.28-1.5,.09-.4,.47-.8,.66-1.17,.2-.38,.49-.63,.92-.72,.3-.06,.49,.08,.6,.31,.17,.37,.19,.77,.14,1.17,0,.08-.02,.16-.03,.27,.12-.24,.2-.46,.27-.69,.14-.45,.18-.91,.24-1.37,.05-.39,.11-.77,.27-1.13l.51-.66c.24-.17,.53-.25,.87-.24,.28,.01,.51,.16,.68,.37,.36,.45,.54,.97,.62,1.53,.06,.49-.07,.94-.24,1.39-.06,.15-.15,.29-.23,.43,.2-.14,.37-.31,.46-.55,.1-.26,.19-.53,.29-.78,.05-.13,.11-.29,.27-.31,.16-.02,.25,.11,.33,.22,.15,.19,.3,.38,.42,.59,.17,.3,.24,.63,.27,.97,.01,.13,.02,.25,.03,.38,.07-.48,.1-.96,.02-1.44-.03-.19-.05-.38-.02-.58,.08-.48,.46-.64,.88-.51,.56,.17,.91,.56,1.14,1.08,.26,.59,.32,1.22,.28,1.85-.03,.47-.16,.92-.32,1.36-.14,.4-.31,.79-.45,1.19-.16,.49-.08,.96,.1,1.43,.09,.23,.21,.43,.4,.59,.04,.04,.08,.07,.16,.08-.06-.16-.12-.31-.17-.47-.17-.62-.08-1.21,.19-1.77,.14-.29,.3-.56,.43-.85,.31-.64,.49-1.32,.6-2.02,.05-.31,.08-.62,.07-.97,.29,.33,.54,.65,.76,.99-.04-.2-.08-.39-.11-.59-.07-.48-.15-.95-.04-1.43"/>
  <path class="cls-2" d="M38.65,64.8c-.16,0-.31,0-.47,0,.87,.47,.58,1.21,.52,1.89,.12-.01,.17-.1,.24-.15,.33-.27,.48-.66,.72-.99,.32-.43,.57-.43,.87,0,.09,.13,.14,.12,.27,.05,.35-.19,.65-.15,.95,.11,.21,.18,.34,.41,.52,.61,.16,.18,.2,.37,.21,.59,.01,.28-.07,.54-.06,.81h0c.26-.16,.35-.42,.47-.66,.15-.29,.19-.61,.3-.91,.09-.24,.26-.42,.58-.4,.26,.01,.5,.19,.58,.45,.03,.1,.04,.21,.07,.31,.08,.36,.38,.63,.79,.7-.05-.09-.1-.17-.14-.26-.15-.32,0-.68,.35-.83,.32-.14,.68-.02,.85,.31,.21,.4,.29,.8,.07,1.22-.25,.49-.53,.97-.65,1.5-.13,.54-.28,1.08-.1,1.64,.05,.16,.1,.33,.28,.44-.02-.64,.04-1.26,.29-1.86,.05-.13,.13-.28,.31-.28,.18,0,.25,.16,.3,.29,.1,.24,.13,.5,.17,.76,.16-.25,.24-.52,.26-.81,.06-.76-.16-1.51-.12-2.27,.03-.49,.14-.96,.55-1.33,.19-.17,.42-.23,.67-.2,.22,.03,.17,.24,.23,.36,.16,.3,.37,.54,.74,.63,0-.07-.04-.12-.07-.18-.23-.37-.11-.76,.31-1.01,.26-.15,.55-.06,.83,.29,.21,.25,.39,.54,.62,.77,.31,.31,.35,.66,.31,1.06-.03,.31-.07,.61-.11,.93,.1-.04,.12-.1,.14-.15,.18-.34,.21-.71,.35-1.06,.08-.2,.14-.41,.36-.53,.19-.11,.37,0,.59,.05-.07-.15-.07-.27-.07-.39,0-.22,.12-.37,.33-.46,.17-.07,.37-.1,.53,.02,.18,.14,.17,.33,.11,.51-.09,.29-.11,.57-.09,.87,.03,.35,.15,.67,.38,1.01,.07-.75,.44-1.33,.8-1.9,.26-.41,.68-.65,1.19-.75,.75-.15,1.52,.23,1.78,.87,.06,.15,.1,.32,.34,.44-.11-.19-.09-.34-.09-.49,0-.36,.37-.57,.73-.43,.31,.12,.36,.38,.38,.64,.04,.62-.08,1.23-.15,1.85-.06,.52-.05,1.04,.18,1.54,.08,.17,.15,.37,.38,.49-.04-.2-.1-.36-.11-.53-.04-.64,.13-1.26,.32-1.87,.06-.19,.2-.28,.43-.29,.64-.02,1.14,.28,1.54,.66,.41,.39,.67,.89,.78,1.43,.08,.4,.18,.79,.34,1.18,.21,.53,.42,.82,.78,1.03-.43-.66-.62-1.32-.55-2.04,0-.04-.02-.09-.03-.13-.21-.82-.66-1.55-1.14-2.26-.14-.2-.21-.43-.16-.66,.11-.52,.4-.95,.87-1.28,0,0,0-.02,.01-.02,0,0,.01,0,.02,0-.01,0-.02,.01-.03,.02,0,.33-.03,.66,.26,.94,.11-.33,.26-.52,.77-.94,0,0,.69-.21-.45-.58-1.85-.61-13.4-1.13-24.33-.37Z"/>
  <path class="cls-2" d="M32.22,64.14c9.57,0,14.72,.17,24.28,.17,.18,0,.37,0,.55,0-.59,.3-.99,.68-1.19,1.18-.12-.05-.17-.12-.25-.17-1.19-.89-2.65-.76-3.94-.21-.5,.22-.86,.49-.68,.94-.62-.06-1.03-.24-1.28-.59-.23-.32-.58-.35-.96-.08-.17,.12-.24,.26-.26,.43-.03,.21,.17,.37,.29,.56-.28-.02-.43-.11-.57-.19-.48-.27-.82-.6-1.04-.98-.22-.38-.61-.66-1.26-.73-1.41-.16-3.25,.42-3.55,1.44-.18,.6-.42,1.2-.92,1.74-.23,.25-.47,.52-1.01,.67,.12-.18,.21-.31,.29-.45,.26-.46,.4-.93,.01-1.4-.34-.41-.97-.48-1.53-.17-.52,.29-.6,.62-.23,1.05-.73-.12-1.07-.37-1.27-.73-.14-.26-.36-.31-.75-.18-.39,.13-.6,.36-.73,.61-.22,.42-.32,.85-.31,1.29,0,.24,0,.48,.28,.67,.03,.04,.06,.08,.09,.12-.84-.21-1.03-.7-1.25-1.17-.13-.28-.18-.57-.29-.85-.05-.12-.12-.26-.35-.28-.23-.02-.37,.1-.46,.21-.62,.75-.84,1.51-.12,2.29,.45,.78,.36,1.53-.31,2.26h0c-.03-.41,.18-.81,.03-1.23-.12-.35-.31-.67-.63-.97-.25-.24-.45-.51-.54-.8-.03-.13-.07-.27-.1-.4,0-.18,0-.37,.01-.55,.17-.35,.36-.69,.5-1.04,.11-.27,0-.52-.41-.69-.39-.16-.51-1.68-.14-1.77Z"/>
</svg>