<?xml version="1.0" encoding="utf-8"?>
<svg fill="#000000" height="800px" width="800px" version="1.1" xmlns="http://www.w3.org/2000/svg">
  <g transform="matrix(0.067568, 0, 0, 0.067114, 45.205712, 185.301562)" style="">
    <path d="M289.5,140.5h-24.606l11.031-11.03c2.93-2.929,2.93-7.678,0.001-10.606c-2.929-2.929-7.678-2.93-10.606-0.001 L243.681,140.5h-36.369l16.182-17.392c2.821-3.032,2.65-7.777-0.383-10.6c-1.243-1.156-2.775-1.802-4.345-1.961 c-0.952-0.047-21.495-0.003-21.495-0.003L221.315,86.5H251.5c4.143,0,7.5-3.357,7.5-7.5s-3.357-7.5-7.5-7.5h-15.186l17.69-17.69 c2.929-2.93,2.929-7.678,0-10.608c-2.93-2.928-7.844-2.928-10.774,0L225.167,61.1V45.5c0-4.143-3.357-7.5-7.5-7.5 c-4.143,0-7.5,3.357-7.5,7.5v30.601l-24.837,25.004l-0.415-22.645c-0.001-0.036,0.035-0.07,0.034-0.106 c-0.035-1.824-0.704-3.641-2.07-5.059c-2.873-2.982-7.778-3.07-10.761-0.194l-15.951,15.226V53.107l21.47-21.304 c2.929-2.93,3.012-7.678,0.083-10.607c-2.93-2.928-7.803-2.928-10.732,0l-10.821,10.696V7.5c0-4.143-3.357-7.5-7.5-7.5 c-4.143,0-7.5,3.357-7.5,7.5v24.393l-10.53-10.696c-2.93-2.928-7.594-2.928-10.524,0c-2.929,2.93-3.054,7.678-0.125,10.607 l21.179,21.304v35.421l-16.176-15.475c-3.009-2.847-7.67-2.718-10.52,0.289c-1.075,1.136-1.683,2.52-1.914,3.955 c-0.142,0.583-0.203,1.188-0.201,1.811l-0.088,21.229l-25.1-24.944V45.5c0-4.143-3.357-7.5-7.5-7.5s-7.5,3.357-7.5,7.5v14.894 L55.142,43.202c-2.93-2.928-7.594-2.928-10.524,0c-2.929,2.93-2.887,7.678,0.042,10.608L62.392,71.5H46.5 c-4.143,0-7.5,3.357-7.5,7.5s3.357,7.5,7.5,7.5h30.892l24.744,24.744l-23.057,0.831c-4.021,0.146-7.524,3.435-7.563,7.418 c-0.004,0.112-0.349,0.225-0.349,0.337c0,0.003,0,0.007,0,0.011c0,0.008,0.345,0.017,0.345,0.024 c0.045,1.875,0.955,3.736,2.395,5.158L89.748,140.5H55.025l-21.638-21.638c-2.93-2.928-7.678-2.928-10.607,0 c-2.929,2.93-2.929,7.678,0,10.607l11.03,11.03H8.5c-4.143,0-7.5,3.357-7.5,7.5s3.357,7.5,7.5,7.5h25.02L22.78,166.239 c-2.929,2.93-2.929,7.678,0,10.607c1.465,1.464,3.385,2.196,5.304,2.196c1.919,0,3.839-0.732,5.304-2.196L54.734,155.5h35.027 l-15.253,16.394c-2.821,3.032-2.65,7.777,0.383,10.6c1.444,1.344,3.277,2.009,5.106,2.009c0.034,0,0.068-0.005,0.103-0.005 c0.022,0,0.044,0.003,0.065,0.003c0.018,0,0.037,0,0.055,0l22.005-0.125L77.101,209.5H46.5c-4.143,0-7.5,3.357-7.5,7.5 s3.357,7.5,7.5,7.5h15.601l-17.399,17.399c-2.929,2.93-2.929,7.678,0,10.607c1.465,1.464,3.385,2.196,5.304,2.196 c1.919,0,3.672-0.732,5.137-2.196l17.025-17.191V250.5c0,4.143,3.357,7.5,7.5,7.5s7.5-3.357,7.5-7.5v-30.185l25.445-25.278 l0.977,24.39c0.148,4.046,3.517,7.306,7.532,7.225c1.364-0.027,2.844-0.465,4.312-1.543c1.063-0.781,15.734-15.812,15.734-15.812 v35.385l-20.971,21.137c-2.93,2.929-2.846,7.678,0.082,10.607c1.465,1.465,3.425,2.197,5.345,2.197 c1.919,0,3.693-0.732,5.157-2.196l10.387-10.532V290.5c0,4.143,3.357,7.5,7.5,7.5c4.143,0,7.5-3.357,7.5-7.5v-25.31l11.404,11.237 c1.465,1.464,3.468,2.196,5.387,2.196c1.919,0,3.881-0.732,5.345-2.196c2.929-2.93,2.783-7.678-0.146-10.607l-21.99-21.845v-35.7 c0,0,13.729,12.896,15.896,14.976c2.167,2.08,3.942,3.25,6.525,3.25c0.015,0,0.03,0,0.046,0c4.142,0,7.48-3.604,7.455-7.746 l-0.306-23.696l24.384,24.551V250.5c0,4.143,3.357,7.5,7.5,7.5c4.143,0,7.5-3.357,7.5-7.5v-15.891l18.064,17.897 c1.465,1.464,3.467,2.196,5.387,2.196c1.919,0,3.88-0.732,5.345-2.196c2.929-2.93,2.95-7.678,0.021-10.607L236.605,224.5H251.5 c4.143,0,7.5-3.357,7.5-7.5s-3.357-7.5-7.5-7.5h-29.894l-25.742-25.742l23.059-0.831c0.082-0.003,0.162-0.016,0.243-0.021 c0.03-0.002,0.06-0.005,0.09-0.008c3.977-0.319,7.037-3.709,6.892-7.736c-0.087-2.424-1.32-4.531-3.155-5.837L209.138,155.5h34.835 l21.345,21.346c1.465,1.465,3.384,2.197,5.304,2.197c1.919,0,3.839-0.732,5.303-2.196c2.93-2.929,2.93-7.678,0.001-10.606 l-10.74-10.74H289.5c4.143,0,7.5-3.357,7.5-7.5S293.643,140.5,289.5,140.5z M200.795,125.483L186.823,140.5h-19.507l15.002-15.002 L200.795,125.483z M170.21,95.784l0.356,20.002l-14.399,14.315V109.16L170.21,95.784z M127.263,95.865l13.904,13.323v20.205 l-13.925-14.008L127.263,95.865z M96.862,126.444l19.762-0.712l14.768,14.768h-20.299L96.862,126.444z M97.246,169.477 L110.25,155.5h20.851l-13.841,13.841L97.246,169.477z M127.863,201.599l-0.854-21.042l14.158-14.241v21.604L127.863,201.599z M170.819,201.264l-14.652-13.478v-22.179l14.442,14.359L170.819,201.264z M200.991,168.564l-19.614,0.706l-13.77-13.77h20.292 L200.991,168.564z" style="fill: rgb(68, 173, 202);"/>
  </g>
  <g transform="matrix(1, 0, 0, 1, -0.917015, -0.422913)">
    <path d="m201.094,29.997c2.649-0.623 4.623-2.996 4.623-5.835v-18.162c0-3.313-2.687-6-6-6h-164.114c-3.313,0-6,2.687-6,6v18.163c0,2.839 1.974,5.212 4.623,5.835 1.812,32.314 18.594,61.928 45.682,80.076l11.324,7.586-11.324,7.586c-27.089,18.147-43.871,47.762-45.682,80.076-2.649,0.623-4.623,2.996-4.623,5.835v18.163c0,3.313 2.687,6 6,6h164.114c3.313,0 6-2.687 6-6v-18.163c0-2.839-1.974-5.212-4.623-5.835-1.812-32.314-18.594-61.928-45.683-80.076l-11.324-7.586 11.324-7.586c27.089-18.148 43.871-47.763 45.683-80.077zm-159.491-17.997h152.114v6.163h-152.114v-6.163zm152.114,211.319h-152.114v-6.163h152.114v6.163zm-63.749-110.644c-1.663,1.114-2.661,2.983-2.661,4.985s0.998,3.871 2.661,4.985l18.765,12.571c23.71,15.883 38.49,41.705 40.333,69.941h-142.812c1.843-28.235 16.623-54.057 40.333-69.941l18.765-12.571c1.663-1.114 2.661-2.983 2.661-4.985s-0.998-3.871-2.661-4.985l-18.765-12.571c-23.71-15.884-38.49-41.706-40.333-69.941h142.812c-1.843,28.236-16.623,54.057-40.333,69.941l-18.765,12.571z" style="fill: rgb(255, 255, 255); stroke-width: 0px;"/>
  </g>
  <g transform="matrix(0.067568, 0, 0, 0.067114, 165.854647, 30.528367)" style="">
    <path d="M289.5,140.5h-24.606l11.031-11.03c2.93-2.929,2.93-7.678,0.001-10.606c-2.929-2.929-7.678-2.93-10.606-0.001 L243.681,140.5h-36.369l16.182-17.392c2.821-3.032,2.65-7.777-0.383-10.6c-1.243-1.156-2.775-1.802-4.345-1.961 c-0.952-0.047-21.495-0.003-21.495-0.003L221.315,86.5H251.5c4.143,0,7.5-3.357,7.5-7.5s-3.357-7.5-7.5-7.5h-15.186l17.69-17.69 c2.929-2.93,2.929-7.678,0-10.608c-2.93-2.928-7.844-2.928-10.774,0L225.167,61.1V45.5c0-4.143-3.357-7.5-7.5-7.5 c-4.143,0-7.5,3.357-7.5,7.5v30.601l-24.837,25.004l-0.415-22.645c-0.001-0.036,0.035-0.07,0.034-0.106 c-0.035-1.824-0.704-3.641-2.07-5.059c-2.873-2.982-7.778-3.07-10.761-0.194l-15.951,15.226V53.107l21.47-21.304 c2.929-2.93,3.012-7.678,0.083-10.607c-2.93-2.928-7.803-2.928-10.732,0l-10.821,10.696V7.5c0-4.143-3.357-7.5-7.5-7.5 c-4.143,0-7.5,3.357-7.5,7.5v24.393l-10.53-10.696c-2.93-2.928-7.594-2.928-10.524,0c-2.929,2.93-3.054,7.678-0.125,10.607 l21.179,21.304v35.421l-16.176-15.475c-3.009-2.847-7.67-2.718-10.52,0.289c-1.075,1.136-1.683,2.52-1.914,3.955 c-0.142,0.583-0.203,1.188-0.201,1.811l-0.088,21.229l-25.1-24.944V45.5c0-4.143-3.357-7.5-7.5-7.5s-7.5,3.357-7.5,7.5v14.894 L55.142,43.202c-2.93-2.928-7.594-2.928-10.524,0c-2.929,2.93-2.887,7.678,0.042,10.608L62.392,71.5H46.5 c-4.143,0-7.5,3.357-7.5,7.5s3.357,7.5,7.5,7.5h30.892l24.744,24.744l-23.057,0.831c-4.021,0.146-7.524,3.435-7.563,7.418 c-0.004,0.112-0.349,0.225-0.349,0.337c0,0.003,0,0.007,0,0.011c0,0.008,0.345,0.017,0.345,0.024 c0.045,1.875,0.955,3.736,2.395,5.158L89.748,140.5H55.025l-21.638-21.638c-2.93-2.928-7.678-2.928-10.607,0 c-2.929,2.93-2.929,7.678,0,10.607l11.03,11.03H8.5c-4.143,0-7.5,3.357-7.5,7.5s3.357,7.5,7.5,7.5h25.02L22.78,166.239 c-2.929,2.93-2.929,7.678,0,10.607c1.465,1.464,3.385,2.196,5.304,2.196c1.919,0,3.839-0.732,5.304-2.196L54.734,155.5h35.027 l-15.253,16.394c-2.821,3.032-2.65,7.777,0.383,10.6c1.444,1.344,3.277,2.009,5.106,2.009c0.034,0,0.068-0.005,0.103-0.005 c0.022,0,0.044,0.003,0.065,0.003c0.018,0,0.037,0,0.055,0l22.005-0.125L77.101,209.5H46.5c-4.143,0-7.5,3.357-7.5,7.5 s3.357,7.5,7.5,7.5h15.601l-17.399,17.399c-2.929,2.93-2.929,7.678,0,10.607c1.465,1.464,3.385,2.196,5.304,2.196 c1.919,0,3.672-0.732,5.137-2.196l17.025-17.191V250.5c0,4.143,3.357,7.5,7.5,7.5s7.5-3.357,7.5-7.5v-30.185l25.445-25.278 l0.977,24.39c0.148,4.046,3.517,7.306,7.532,7.225c1.364-0.027,2.844-0.465,4.312-1.543c1.063-0.781,15.734-15.812,15.734-15.812 v35.385l-20.971,21.137c-2.93,2.929-2.846,7.678,0.082,10.607c1.465,1.465,3.425,2.197,5.345,2.197 c1.919,0,3.693-0.732,5.157-2.196l10.387-10.532V290.5c0,4.143,3.357,7.5,7.5,7.5c4.143,0,7.5-3.357,7.5-7.5v-25.31l11.404,11.237 c1.465,1.464,3.468,2.196,5.387,2.196c1.919,0,3.881-0.732,5.345-2.196c2.929-2.93,2.783-7.678-0.146-10.607l-21.99-21.845v-35.7 c0,0,13.729,12.896,15.896,14.976c2.167,2.08,3.942,3.25,6.525,3.25c0.015,0,0.03,0,0.046,0c4.142,0,7.48-3.604,7.455-7.746 l-0.306-23.696l24.384,24.551V250.5c0,4.143,3.357,7.5,7.5,7.5c4.143,0,7.5-3.357,7.5-7.5v-15.891l18.064,17.897 c1.465,1.464,3.467,2.196,5.387,2.196c1.919,0,3.88-0.732,5.345-2.196c2.929-2.93,2.95-7.678,0.021-10.607L236.605,224.5H251.5 c4.143,0,7.5-3.357,7.5-7.5s-3.357-7.5-7.5-7.5h-29.894l-25.742-25.742l23.059-0.831c0.082-0.003,0.162-0.016,0.243-0.021 c0.03-0.002,0.06-0.005,0.09-0.008c3.977-0.319,7.037-3.709,6.892-7.736c-0.087-2.424-1.32-4.531-3.155-5.837L209.138,155.5h34.835 l21.345,21.346c1.465,1.465,3.384,2.197,5.304,2.197c1.919,0,3.839-0.732,5.303-2.196c2.93-2.929,2.93-7.678,0.001-10.606 l-10.74-10.74H289.5c4.143,0,7.5-3.357,7.5-7.5S293.643,140.5,289.5,140.5z M200.795,125.483L186.823,140.5h-19.507l15.002-15.002 L200.795,125.483z M170.21,95.784l0.356,20.002l-14.399,14.315V109.16L170.21,95.784z M127.263,95.865l13.904,13.323v20.205 l-13.925-14.008L127.263,95.865z M96.862,126.444l19.762-0.712l14.768,14.768h-20.299L96.862,126.444z M97.246,169.477 L110.25,155.5h20.851l-13.841,13.841L97.246,169.477z M127.863,201.599l-0.854-21.042l14.158-14.241v21.604L127.863,201.599z M170.819,201.264l-14.652-13.478v-22.179l14.442,14.359L170.819,201.264z M200.991,168.564l-19.614,0.706l-13.77-13.77h20.292 L200.991,168.564z" style="fill: rgb(68, 173, 202);"/>
  </g>
  <g transform="matrix(0.067568, 0, 0, 0.067114, 47.844476, 30.21617)" style="">
    <path d="M289.5,140.5h-24.606l11.031-11.03c2.93-2.929,2.93-7.678,0.001-10.606c-2.929-2.929-7.678-2.93-10.606-0.001 L243.681,140.5h-36.369l16.182-17.392c2.821-3.032,2.65-7.777-0.383-10.6c-1.243-1.156-2.775-1.802-4.345-1.961 c-0.952-0.047-21.495-0.003-21.495-0.003L221.315,86.5H251.5c4.143,0,7.5-3.357,7.5-7.5s-3.357-7.5-7.5-7.5h-15.186l17.69-17.69 c2.929-2.93,2.929-7.678,0-10.608c-2.93-2.928-7.844-2.928-10.774,0L225.167,61.1V45.5c0-4.143-3.357-7.5-7.5-7.5 c-4.143,0-7.5,3.357-7.5,7.5v30.601l-24.837,25.004l-0.415-22.645c-0.001-0.036,0.035-0.07,0.034-0.106 c-0.035-1.824-0.704-3.641-2.07-5.059c-2.873-2.982-7.778-3.07-10.761-0.194l-15.951,15.226V53.107l21.47-21.304 c2.929-2.93,3.012-7.678,0.083-10.607c-2.93-2.928-7.803-2.928-10.732,0l-10.821,10.696V7.5c0-4.143-3.357-7.5-7.5-7.5 c-4.143,0-7.5,3.357-7.5,7.5v24.393l-10.53-10.696c-2.93-2.928-7.594-2.928-10.524,0c-2.929,2.93-3.054,7.678-0.125,10.607 l21.179,21.304v35.421l-16.176-15.475c-3.009-2.847-7.67-2.718-10.52,0.289c-1.075,1.136-1.683,2.52-1.914,3.955 c-0.142,0.583-0.203,1.188-0.201,1.811l-0.088,21.229l-25.1-24.944V45.5c0-4.143-3.357-7.5-7.5-7.5s-7.5,3.357-7.5,7.5v14.894 L55.142,43.202c-2.93-2.928-7.594-2.928-10.524,0c-2.929,2.93-2.887,7.678,0.042,10.608L62.392,71.5H46.5 c-4.143,0-7.5,3.357-7.5,7.5s3.357,7.5,7.5,7.5h30.892l24.744,24.744l-23.057,0.831c-4.021,0.146-7.524,3.435-7.563,7.418 c-0.004,0.112-0.349,0.225-0.349,0.337c0,0.003,0,0.007,0,0.011c0,0.008,0.345,0.017,0.345,0.024 c0.045,1.875,0.955,3.736,2.395,5.158L89.748,140.5H55.025l-21.638-21.638c-2.93-2.928-7.678-2.928-10.607,0 c-2.929,2.93-2.929,7.678,0,10.607l11.03,11.03H8.5c-4.143,0-7.5,3.357-7.5,7.5s3.357,7.5,7.5,7.5h25.02L22.78,166.239 c-2.929,2.93-2.929,7.678,0,10.607c1.465,1.464,3.385,2.196,5.304,2.196c1.919,0,3.839-0.732,5.304-2.196L54.734,155.5h35.027 l-15.253,16.394c-2.821,3.032-2.65,7.777,0.383,10.6c1.444,1.344,3.277,2.009,5.106,2.009c0.034,0,0.068-0.005,0.103-0.005 c0.022,0,0.044,0.003,0.065,0.003c0.018,0,0.037,0,0.055,0l22.005-0.125L77.101,209.5H46.5c-4.143,0-7.5,3.357-7.5,7.5 s3.357,7.5,7.5,7.5h15.601l-17.399,17.399c-2.929,2.93-2.929,7.678,0,10.607c1.465,1.464,3.385,2.196,5.304,2.196 c1.919,0,3.672-0.732,5.137-2.196l17.025-17.191V250.5c0,4.143,3.357,7.5,7.5,7.5s7.5-3.357,7.5-7.5v-30.185l25.445-25.278 l0.977,24.39c0.148,4.046,3.517,7.306,7.532,7.225c1.364-0.027,2.844-0.465,4.312-1.543c1.063-0.781,15.734-15.812,15.734-15.812 v35.385l-20.971,21.137c-2.93,2.929-2.846,7.678,0.082,10.607c1.465,1.465,3.425,2.197,5.345,2.197 c1.919,0,3.693-0.732,5.157-2.196l10.387-10.532V290.5c0,4.143,3.357,7.5,7.5,7.5c4.143,0,7.5-3.357,7.5-7.5v-25.31l11.404,11.237 c1.465,1.464,3.468,2.196,5.387,2.196c1.919,0,3.881-0.732,5.345-2.196c2.929-2.93,2.783-7.678-0.146-10.607l-21.99-21.845v-35.7 c0,0,13.729,12.896,15.896,14.976c2.167,2.08,3.942,3.25,6.525,3.25c0.015,0,0.03,0,0.046,0c4.142,0,7.48-3.604,7.455-7.746 l-0.306-23.696l24.384,24.551V250.5c0,4.143,3.357,7.5,7.5,7.5c4.143,0,7.5-3.357,7.5-7.5v-15.891l18.064,17.897 c1.465,1.464,3.467,2.196,5.387,2.196c1.919,0,3.88-0.732,5.345-2.196c2.929-2.93,2.95-7.678,0.021-10.607L236.605,224.5H251.5 c4.143,0,7.5-3.357,7.5-7.5s-3.357-7.5-7.5-7.5h-29.894l-25.742-25.742l23.059-0.831c0.082-0.003,0.162-0.016,0.243-0.021 c0.03-0.002,0.06-0.005,0.09-0.008c3.977-0.319,7.037-3.709,6.892-7.736c-0.087-2.424-1.32-4.531-3.155-5.837L209.138,155.5h34.835 l21.345,21.346c1.465,1.465,3.384,2.197,5.304,2.197c1.919,0,3.839-0.732,5.303-2.196c2.93-2.929,2.93-7.678,0.001-10.606 l-10.74-10.74H289.5c4.143,0,7.5-3.357,7.5-7.5S293.643,140.5,289.5,140.5z M200.795,125.483L186.823,140.5h-19.507l15.002-15.002 L200.795,125.483z M170.21,95.784l0.356,20.002l-14.399,14.315V109.16L170.21,95.784z M127.263,95.865l13.904,13.323v20.205 l-13.925-14.008L127.263,95.865z M96.862,126.444l19.762-0.712l14.768,14.768h-20.299L96.862,126.444z M97.246,169.477 L110.25,155.5h20.851l-13.841,13.841L97.246,169.477z M127.863,201.599l-0.854-21.042l14.158-14.241v21.604L127.863,201.599z M170.819,201.264l-14.652-13.478v-22.179l14.442,14.359L170.819,201.264z M200.991,168.564l-19.614,0.706l-13.77-13.77h20.292 L200.991,168.564z" style="fill: rgb(68, 173, 202);"/>
  </g>
  <g transform="matrix(0.405405, 0, 0, 0.402685, 123.332613, 176.262469)" style="">
    <path d="M 123.163 -152.559 L 98.557 -152.559 L 109.588 -163.589 C 112.518 -166.518 112.518 -171.267 109.589 -174.195 C 106.66 -177.124 101.911 -177.125 98.983 -174.196 L 77.344 -152.559 L 40.975 -152.559 L 57.157 -169.951 C 59.978 -172.983 59.807 -177.728 56.774 -180.551 C 55.531 -181.707 53.999 -182.353 52.429 -182.512 C 51.477 -182.559 30.934 -182.515 30.934 -182.515 L 54.978 -206.559 L 85.163 -206.559 C 89.306 -206.559 92.663 -209.916 92.663 -214.059 C 92.663 -218.202 89.306 -221.559 85.163 -221.559 L 69.977 -221.559 L 87.667 -239.249 C 90.596 -242.179 90.596 -246.927 87.667 -249.857 C 84.737 -252.785 79.823 -252.785 76.893 -249.857 L 58.83 -231.959 L 58.83 -247.559 C 58.83 -251.702 55.473 -255.059 51.33 -255.059 C 47.187 -255.059 43.83 -251.702 43.83 -247.559 L 43.83 -216.958 L 18.993 -191.954 L 18.578 -214.599 C 18.577 -214.635 18.613 -214.669 18.612 -214.705 C 18.577 -216.529 17.908 -218.346 16.542 -219.764 C 13.669 -222.746 8.764 -222.834 5.781 -219.958 L -10.17 -204.732 L -10.17 -239.952 L 11.3 -261.256 C 14.229 -264.186 14.312 -268.934 11.383 -271.863 C 8.453 -274.791 3.58 -274.791 0.651 -271.863 L -10.17 -261.167 L -10.17 -285.559 C -10.17 -289.702 -13.527 -293.059 -17.67 -293.059 C -21.813 -293.059 -25.17 -289.702 -25.17 -285.559 L -25.17 -261.166 L -35.7 -271.862 C -38.63 -274.79 -43.294 -274.79 -46.224 -271.862 C -49.153 -268.932 -49.278 -264.184 -46.349 -261.255 L -25.17 -239.951 L -25.17 -204.53 L -41.346 -220.005 C -44.355 -222.852 -49.016 -222.723 -51.866 -219.716 C -52.941 -218.58 -53.549 -217.196 -53.78 -215.761 C -53.922 -215.178 -53.983 -214.573 -53.981 -213.95 L -54.069 -192.721 L -79.169 -217.665 L -79.169 -247.559 C -79.169 -251.702 -82.526 -255.059 -86.669 -255.059 C -90.812 -255.059 -94.169 -251.702 -94.169 -247.559 L -94.169 -232.665 L -111.195 -249.857 C -114.125 -252.785 -118.789 -252.785 -121.719 -249.857 C -124.648 -246.927 -124.606 -242.179 -121.677 -239.249 L -103.945 -221.559 L -119.837 -221.559 C -123.98 -221.559 -127.337 -218.202 -127.337 -214.059 C -127.337 -209.916 -123.98 -206.559 -119.837 -206.559 L -88.945 -206.559 L -64.201 -181.815 L -87.258 -180.984 C -91.279 -180.838 -94.782 -177.549 -94.821 -173.566 C -94.825 -173.454 -95.17 -173.341 -95.17 -173.229 C -95.17 -173.226 -95.17 -173.222 -95.17 -173.218 C -95.17 -173.21 -94.825 -173.201 -94.825 -173.194 C -94.78 -171.319 -93.87 -169.458 -92.43 -168.036 L -76.589 -152.559 L -111.312 -152.559 L -132.95 -174.197 C -135.88 -177.125 -140.628 -177.125 -143.557 -174.197 C -146.486 -171.267 -146.486 -166.519 -143.557 -163.59 L -132.527 -152.56 L -157.837 -152.56 C -161.98 -152.56 -165.337 -149.203 -165.337 -145.06 C -165.337 -140.917 -161.98 -137.56 -157.837 -137.56 L -132.817 -137.56 L -143.557 -126.82 C -146.486 -123.89 -146.486 -119.142 -143.557 -116.213 C -142.092 -114.749 -140.172 -114.017 -138.253 -114.017 C -136.334 -114.017 -134.414 -114.749 -132.949 -116.213 L -111.603 -137.559 L -76.576 -137.559 L -91.829 -121.165 C -94.65 -118.133 -94.479 -113.388 -91.446 -110.565 C -90.002 -109.221 -88.169 -108.556 -86.34 -108.556 C -86.306 -108.556 -86.272 -108.561 -86.237 -108.561 C -86.215 -108.561 -86.193 -108.558 -86.172 -108.558 C -86.154 -108.558 -86.135 -108.558 -86.117 -108.558 L -64.112 -108.683 L -89.236 -83.559 L -119.837 -83.559 C -123.98 -83.559 -127.337 -80.202 -127.337 -76.059 C -127.337 -71.916 -123.98 -68.559 -119.837 -68.559 L -104.236 -68.559 L -121.635 -51.16 C -124.564 -48.23 -124.564 -43.482 -121.635 -40.553 C -120.17 -39.089 -118.25 -38.357 -116.331 -38.357 C -114.412 -38.357 -112.659 -39.089 -111.194 -40.553 L -94.169 -57.744 L -94.169 -42.559 C -94.169 -38.416 -90.812 -35.059 -86.669 -35.059 C -82.526 -35.059 -79.169 -38.416 -79.169 -42.559 L -79.169 -72.744 L -53.724 -98.022 L -52.747 -73.632 C -52.599 -69.586 -49.23 -66.326 -45.215 -66.407 C -43.851 -66.434 -42.371 -66.872 -40.903 -67.95 C -39.84 -68.731 -25.169 -83.762 -25.169 -83.762 L -25.169 -48.377 L -46.14 -27.24 C -49.07 -24.311 -48.986 -19.562 -46.058 -16.633 C -44.593 -15.168 -42.633 -14.436 -40.713 -14.436 C -38.794 -14.436 -37.02 -15.168 -35.556 -16.632 L -25.169 -27.164 L -25.169 -2.559 C -25.169 1.584 -21.812 4.941 -17.669 4.941 C -13.526 4.941 -10.169 1.584 -10.169 -2.559 L -10.169 -27.869 L 1.235 -16.632 C 2.7 -15.168 4.703 -14.436 6.622 -14.436 C 8.541 -14.436 10.503 -15.168 11.967 -16.632 C 14.896 -19.562 14.75 -24.31 11.821 -27.239 L -10.169 -49.084 L -10.169 -84.784 C -10.169 -84.784 3.56 -71.888 5.727 -69.808 C 7.894 -67.728 9.669 -66.558 12.252 -66.558 C 12.267 -66.558 12.282 -66.558 12.298 -66.558 C 16.44 -66.558 19.778 -70.162 19.753 -74.304 L 19.447 -98 L 43.831 -73.449 L 43.831 -42.559 C 43.831 -38.416 47.188 -35.059 51.331 -35.059 C 55.474 -35.059 58.831 -38.416 58.831 -42.559 L 58.831 -58.45 L 76.895 -40.553 C 78.36 -39.089 80.362 -38.357 82.282 -38.357 C 84.201 -38.357 86.162 -39.089 87.627 -40.553 C 90.556 -43.483 90.577 -48.231 87.648 -51.16 L 70.268 -68.559 L 85.163 -68.559 C 89.306 -68.559 92.663 -71.916 92.663 -76.059 C 92.663 -80.202 89.306 -83.559 85.163 -83.559 L 55.269 -83.559 L 29.527 -109.301 L 52.586 -110.132 C 52.668 -110.135 52.748 -110.148 52.829 -110.153 C 52.859 -110.155 52.889 -110.158 52.919 -110.161 C 56.896 -110.48 59.956 -113.87 59.811 -117.897 C 59.724 -120.321 58.491 -122.428 56.656 -123.734 L 42.801 -137.559 L 77.636 -137.559 L 98.981 -116.213 C 100.446 -114.748 102.365 -114.016 104.285 -114.016 C 106.204 -114.016 108.124 -114.748 109.588 -116.212 C 112.518 -119.141 112.518 -123.89 109.589 -126.818 L 98.849 -137.558 L 123.163 -137.558 C 127.306 -137.558 130.663 -140.915 130.663 -145.058 C 130.663 -149.201 127.306 -152.559 123.163 -152.559 Z M 34.458 -167.576 L 20.486 -152.559 L 0.979 -152.559 L 15.981 -167.561 L 34.458 -167.576 Z M 3.873 -197.275 L 4.229 -177.273 L -10.17 -162.958 L -10.17 -183.899 L 3.873 -197.275 Z M -39.074 -197.194 L -25.17 -183.871 L -25.17 -163.666 L -39.095 -177.674 L -39.074 -197.194 Z M -69.475 -166.615 L -49.713 -167.327 L -34.945 -152.559 L -55.244 -152.559 L -69.475 -166.615 Z M -69.091 -123.582 L -56.087 -137.559 L -35.236 -137.559 L -49.077 -123.718 L -69.091 -123.582 Z M -38.474 -91.46 L -39.328 -112.502 L -25.17 -126.743 L -25.17 -105.139 L -38.474 -91.46 Z M 4.482 -91.795 L -10.17 -105.273 L -10.17 -127.452 L 4.272 -113.093 L 4.482 -91.795 Z M 34.654 -124.495 L 15.04 -123.789 L 1.27 -137.559 L 35.424 -142.211 L 34.654 -124.495 Z" style="fill: rgb(68, 173, 202);"/>
  </g>
  <g transform="matrix(0.067568, 0, 0, 0.067114, 164.918048, 184.718615)" style="">
    <path d="M289.5,140.5h-24.606l11.031-11.03c2.93-2.929,2.93-7.678,0.001-10.606c-2.929-2.929-7.678-2.93-10.606-0.001 L243.681,140.5h-36.369l16.182-17.392c2.821-3.032,2.65-7.777-0.383-10.6c-1.243-1.156-2.775-1.802-4.345-1.961 c-0.952-0.047-21.495-0.003-21.495-0.003L221.315,86.5H251.5c4.143,0,7.5-3.357,7.5-7.5s-3.357-7.5-7.5-7.5h-15.186l17.69-17.69 c2.929-2.93,2.929-7.678,0-10.608c-2.93-2.928-7.844-2.928-10.774,0L225.167,61.1V45.5c0-4.143-3.357-7.5-7.5-7.5 c-4.143,0-7.5,3.357-7.5,7.5v30.601l-24.837,25.004l-0.415-22.645c-0.001-0.036,0.035-0.07,0.034-0.106 c-0.035-1.824-0.704-3.641-2.07-5.059c-2.873-2.982-7.778-3.07-10.761-0.194l-15.951,15.226V53.107l21.47-21.304 c2.929-2.93,3.012-7.678,0.083-10.607c-2.93-2.928-7.803-2.928-10.732,0l-10.821,10.696V7.5c0-4.143-3.357-7.5-7.5-7.5 c-4.143,0-7.5,3.357-7.5,7.5v24.393l-10.53-10.696c-2.93-2.928-7.594-2.928-10.524,0c-2.929,2.93-3.054,7.678-0.125,10.607 l21.179,21.304v35.421l-16.176-15.475c-3.009-2.847-7.67-2.718-10.52,0.289c-1.075,1.136-1.683,2.52-1.914,3.955 c-0.142,0.583-0.203,1.188-0.201,1.811l-0.088,21.229l-25.1-24.944V45.5c0-4.143-3.357-7.5-7.5-7.5s-7.5,3.357-7.5,7.5v14.894 L55.142,43.202c-2.93-2.928-7.594-2.928-10.524,0c-2.929,2.93-2.887,7.678,0.042,10.608L62.392,71.5H46.5 c-4.143,0-7.5,3.357-7.5,7.5s3.357,7.5,7.5,7.5h30.892l24.744,24.744l-23.057,0.831c-4.021,0.146-7.524,3.435-7.563,7.418 c-0.004,0.112-0.349,0.225-0.349,0.337c0,0.003,0,0.007,0,0.011c0,0.008,0.345,0.017,0.345,0.024 c0.045,1.875,0.955,3.736,2.395,5.158L89.748,140.5H55.025l-21.638-21.638c-2.93-2.928-7.678-2.928-10.607,0 c-2.929,2.93-2.929,7.678,0,10.607l11.03,11.03H8.5c-4.143,0-7.5,3.357-7.5,7.5s3.357,7.5,7.5,7.5h25.02L22.78,166.239 c-2.929,2.93-2.929,7.678,0,10.607c1.465,1.464,3.385,2.196,5.304,2.196c1.919,0,3.839-0.732,5.304-2.196L54.734,155.5h35.027 l-15.253,16.394c-2.821,3.032-2.65,7.777,0.383,10.6c1.444,1.344,3.277,2.009,5.106,2.009c0.034,0,0.068-0.005,0.103-0.005 c0.022,0,0.044,0.003,0.065,0.003c0.018,0,0.037,0,0.055,0l22.005-0.125L77.101,209.5H46.5c-4.143,0-7.5,3.357-7.5,7.5 s3.357,7.5,7.5,7.5h15.601l-17.399,17.399c-2.929,2.93-2.929,7.678,0,10.607c1.465,1.464,3.385,2.196,5.304,2.196 c1.919,0,3.672-0.732,5.137-2.196l17.025-17.191V250.5c0,4.143,3.357,7.5,7.5,7.5s7.5-3.357,7.5-7.5v-30.185l25.445-25.278 l0.977,24.39c0.148,4.046,3.517,7.306,7.532,7.225c1.364-0.027,2.844-0.465,4.312-1.543c1.063-0.781,15.734-15.812,15.734-15.812 v35.385l-20.971,21.137c-2.93,2.929-2.846,7.678,0.082,10.607c1.465,1.465,3.425,2.197,5.345,2.197 c1.919,0,3.693-0.732,5.157-2.196l10.387-10.532V290.5c0,4.143,3.357,7.5,7.5,7.5c4.143,0,7.5-3.357,7.5-7.5v-25.31l11.404,11.237 c1.465,1.464,3.468,2.196,5.387,2.196c1.919,0,3.881-0.732,5.345-2.196c2.929-2.93,2.783-7.678-0.146-10.607l-21.99-21.845v-35.7 c0,0,13.729,12.896,15.896,14.976c2.167,2.08,3.942,3.25,6.525,3.25c0.015,0,0.03,0,0.046,0c4.142,0,7.48-3.604,7.455-7.746 l-0.306-23.696l24.384,24.551V250.5c0,4.143,3.357,7.5,7.5,7.5c4.143,0,7.5-3.357,7.5-7.5v-15.891l18.064,17.897 c1.465,1.464,3.467,2.196,5.387,2.196c1.919,0,3.88-0.732,5.345-2.196c2.929-2.93,2.95-7.678,0.021-10.607L236.605,224.5H251.5 c4.143,0,7.5-3.357,7.5-7.5s-3.357-7.5-7.5-7.5h-29.894l-25.742-25.742l23.059-0.831c0.082-0.003,0.162-0.016,0.243-0.021 c0.03-0.002,0.06-0.005,0.09-0.008c3.977-0.319,7.037-3.709,6.892-7.736c-0.087-2.424-1.32-4.531-3.155-5.837L209.138,155.5h34.835 l21.345,21.346c1.465,1.465,3.384,2.197,5.304,2.197c1.919,0,3.839-0.732,5.303-2.196c2.93-2.929,2.93-7.678,0.001-10.606 l-10.74-10.74H289.5c4.143,0,7.5-3.357,7.5-7.5S293.643,140.5,289.5,140.5z M200.795,125.483L186.823,140.5h-19.507l15.002-15.002 L200.795,125.483z M170.21,95.784l0.356,20.002l-14.399,14.315V109.16L170.21,95.784z M127.263,95.865l13.904,13.323v20.205 l-13.925-14.008L127.263,95.865z M96.862,126.444l19.762-0.712l14.768,14.768h-20.299L96.862,126.444z M97.246,169.477 L110.25,155.5h20.851l-13.841,13.841L97.246,169.477z M127.863,201.599l-0.854-21.042l14.158-14.241v21.604L127.863,201.599z M170.819,201.264l-14.652-13.478v-22.179l14.442,14.359L170.819,201.264z M200.991,168.564l-19.614,0.706l-13.77-13.77h20.292 L200.991,168.564z" style="fill: rgb(68, 173, 202);"/>
  </g>
</svg>