<svg width="19" height="35" viewBox="0 0 19 35" fill="none" xmlns="http://www.w3.org/2000/svg">
<path d="M4.71333 24.44C4.56 24.0333 4.43333 23.58 4.35333 23.0667C4.26667 22.56 4.22666 22.08 4.22666 21.6267C4.22666 20.9067 4.3 20.2533 4.44 19.66C4.58 19.0667 4.79333 18.5067 5.07333 17.9867C5.35333 17.46 5.70667 16.9667 6.12667 16.4867C6.54667 16.0133 7.04 15.54 7.6 15.0667C8.19333 14.5667 8.71333 14.1 9.16 13.6733C9.60667 13.2467 9.98666 12.8133 10.3 12.3867C10.6133 11.96 10.8467 11.5133 11 11.0533C11.1533 10.5933 11.2333 10.08 11.2333 9.52C11.2333 9.03333 11.1467 8.58667 10.9733 8.17334C10.8 7.76 10.5533 7.40666 10.2333 7.10666C9.91333 6.81333 9.52 6.57333 9.06 6.40667C8.6 6.23333 8.08667 6.14667 7.52667 6.14667C6.30667 6.14667 5.04 6.4 3.72666 6.90667C2.41333 7.41333 1.17333 8.18667 0 9.21333V2.16C1.2 1.44 2.51333 0.899998 3.94 0.539998C5.36 0.179998 6.83333 0 8.34666 0C9.86 0 11.1533 0.160001 12.4 0.480001C13.6533 0.800001 14.74 1.30667 15.6667 1.99333C16.5933 2.68 17.32 3.56 17.8467 4.63333C18.3733 5.70667 18.6333 6.98667 18.6333 8.48667C18.6333 9.44 18.5267 10.3 18.3067 11.0733C18.0867 11.8467 17.7667 12.58 17.3467 13.2667C16.9267 13.9533 16.4 14.6133 15.7733 15.2467C15.1467 15.88 14.4267 16.5333 13.62 17.2067C13.0733 17.66 12.5933 18.08 12.18 18.4733C11.7667 18.8667 11.42 19.2533 11.1467 19.6333C10.8733 20.0133 10.6667 20.42 10.5267 20.8533C10.3867 21.2867 10.3133 21.7733 10.3133 22.32C10.3133 22.6933 10.3667 23.08 10.4667 23.4667C10.5667 23.86 10.7067 24.1867 10.88 24.4533H4.71333V24.44ZM8.13333 34.7067C6.88 34.7067 5.84666 34.3333 5.01333 33.58C4.18666 32.8 3.77333 31.88 3.77333 30.8133C3.77333 29.7467 4.18666 28.8067 5.01333 28.0733C5.84 27.34 6.88 26.9733 8.13333 26.9733C9.38667 26.9733 10.3933 27.34 11.2067 28.0733C12.02 28.7933 12.4267 29.7067 12.4267 30.8133C12.4267 31.92 12.0267 32.8667 11.2333 33.6C10.42 34.3333 9.38667 34.7 8.14 34.7L8.13333 34.7067Z" fill="url(#paint0_linear_9_296)"/>
<defs>
<linearGradient id="paint0_linear_9_296" x1="9.32011" y1="34.707" x2="9.32011" y2="-0.00633551" gradientUnits="userSpaceOnUse">
<stop stop-color="#C02C7E"/>
<stop offset="0.31" stop-color="#5E4293"/>
<stop offset="0.59" stop-color="#294D9C"/>
<stop offset="0.82" stop-color="#48B58F"/>
<stop offset="1" stop-color="#ADADAC"/>
</linearGradient>
</defs>
</svg>
