<svg xmlns="http://www.w3.org/2000/svg" width="20" height="20" viewBox="0 0 20 20" fill="none">
  <path d="M10.7156 12.0289H7.05778V14.6778H10.7156V12.0289Z" fill="#547987"/>
  <path d="M14.2089 3H3.56445C2.74461 3 2.08 3.66461 2.08 4.48444V10.8844C2.08 11.7043 2.74461 12.3689 3.56445 12.3689H14.2089C15.0287 12.3689 15.6933 11.7043 15.6933 10.8844V4.48444C15.6933 3.66461 15.0287 3 14.2089 3Z" fill="#BDBCB8"/>
  <path d="M13.6822 3H4.09111C3.31178 3 2.68 3.63178 2.68 4.41111V10.9578C2.68 11.7371 3.31178 12.3689 4.09111 12.3689H13.6822C14.4616 12.3689 15.0933 11.7371 15.0933 10.9578V4.41111C15.0933 3.63178 14.4616 3 13.6822 3Z" fill="#DAD7D5"/>
  <path d="M13.9356 4.03333H4.01555C3.77255 4.03333 3.57555 4.23032 3.57555 4.47333V10.7755C3.57555 11.0186 3.77255 11.2155 4.01555 11.2155H13.9356C14.1786 11.2155 14.3756 11.0186 14.3756 10.7755V4.47333C14.3756 4.23032 14.1786 4.03333 13.9356 4.03333Z" fill="#7DACC9"/>
  <path d="M8.88667 20C10.1621 20.0006 11.424 19.7399 12.5947 19.2338C13.7654 18.7278 14.82 17.9872 15.6933 17.0577V15.8488C15.6939 15.4567 15.5393 15.0802 15.2633 14.8017C14.9872 14.5231 14.6122 14.3651 14.22 14.3622H3.56445C3.36932 14.3622 3.17611 14.4007 2.99586 14.4754C2.81562 14.5501 2.65187 14.6597 2.514 14.7978C2.37613 14.9358 2.26683 15.0997 2.19236 15.2801C2.11789 15.4605 2.07971 15.6537 2.08 15.8488V17.0577C2.95334 17.9872 4.0079 18.7278 5.1786 19.2338C6.3493 19.7399 7.61128 20.0006 8.88667 20Z" fill="#BDBCB8"/>
  <path d="M13.68 14.3622H4.09333C3.71849 14.3622 3.35901 14.5111 3.09396 14.7761C2.8289 15.0412 2.68 15.4007 2.68 15.7755V17.6466C4.39207 19.1627 6.59983 19.9997 8.88667 19.9997C11.1735 19.9997 13.3813 19.1627 15.0933 17.6466V15.7755C15.0933 15.5899 15.0568 15.4061 14.9858 15.2347C14.9147 15.0632 14.8106 14.9074 14.6794 14.7761C14.5481 14.6449 14.3923 14.5408 14.2209 14.4698C14.0494 14.3987 13.8656 14.3622 13.68 14.3622Z" fill="#DAD7D5"/>
  <path d="M9.69334 16.6622C9.74568 16.281 9.74568 15.8945 9.69334 15.5133C9.67092 15.3714 9.59817 15.2423 9.4884 15.1497C9.37863 15.0571 9.23918 15.0071 9.09556 15.0088H4.28C4.16969 15.0088 4.06046 15.0306 3.95855 15.0728C3.85663 15.115 3.76403 15.1769 3.68603 15.2549C3.60803 15.3329 3.54616 15.4255 3.50394 15.5274C3.46173 15.6293 3.44 15.7385 3.44 15.8488V16.8711C3.44098 16.9997 3.47326 17.1263 3.53404 17.2397C3.59482 17.3531 3.68229 17.4501 3.78889 17.5222C5.0743 18.3909 6.55601 18.9256 8.1 19.0777C8.20155 19.0865 8.30373 19.071 8.39804 19.0323C8.49235 18.9937 8.57607 18.933 8.64223 18.8555C9.18461 18.233 9.54789 17.4749 9.69334 16.6622Z" fill="#E7E6E4"/>
  <path d="M15.6933 5.72449H17.1222C17.2081 5.7242 17.2932 5.7409 17.3726 5.77363C17.452 5.80635 17.5241 5.85447 17.5848 5.91519C17.6456 5.97592 17.6937 6.04806 17.7264 6.12746C17.7591 6.20686 17.7758 6.29195 17.7756 6.37782V9.14449C17.7756 9.31718 17.707 9.48279 17.5848 9.6049C17.4627 9.727 17.2971 9.7956 17.1244 9.7956H15.6933V5.72449Z" fill="#547987"/>
  <path d="M2.08 9.79773H0.651113C0.478427 9.79773 0.312815 9.72913 0.190708 9.60702C0.0686009 9.48492 1.89185e-06 9.3193 1.89185e-06 9.14662L1.89185e-06 6.37773C1.89185e-06 6.20504 0.0686009 6.03943 0.190708 5.91732C0.312815 5.79522 0.478427 5.72662 0.651113 5.72662H2.08L2.08 9.79773Z" fill="#547987"/>
  <g opacity="0.1">
    <path d="M9.10889 5.62441C9.15998 5.24687 9.15998 4.86417 9.10889 4.48663C9.08753 4.34294 9.01513 4.21174 8.90494 4.11707C8.79476 4.02239 8.65416 3.97056 8.50889 3.97107H4.28667C4.06389 3.97107 3.85023 4.05957 3.6927 4.2171C3.53517 4.37463 3.44667 4.58829 3.44667 4.81107V8.6133C3.44607 8.75484 3.49726 8.89171 3.59058 8.99813C3.68391 9.10456 3.81293 9.17318 3.95333 9.19107C4.54592 9.23361 5.14121 9.21948 5.73111 9.14885C6.59326 8.99128 7.38377 8.56586 7.9902 7.9331C8.59663 7.30034 8.98808 6.49247 9.10889 5.62441Z" fill="white"/>
  </g>
</svg>